<?xml version="1.0" encoding="UTF-8" standalone="no"?>
<svg
   id="Camada_1"
   data-name="Camada 1"
   viewBox="0 0 783835.5 316297.34"
   version="1.1"
   sodipodi:docname="Rede Brasileira de Diatomólogos - Marca_17-19.svg"
   width="783835.5"
   height="316297.34"
   xmlns:inkscape="http://www.inkscape.org/namespaces/inkscape"
   xmlns:sodipodi="http://sodipodi.sourceforge.net/DTD/sodipodi-0.dtd"
   xmlns="http://www.w3.org/2000/svg"
   xmlns:svg="http://www.w3.org/2000/svg">
  <sodipodi:namedview
     id="namedview89"
     pagecolor="#ffffff"
     bordercolor="#000000"
     borderopacity="0.25"
     inkscape:showpageshadow="2"
     inkscape:pageopacity="0.0"
     inkscape:pagecheckerboard="0"
     inkscape:deskcolor="#d1d1d1" />
  <defs
     id="defs1">
    <style
       id="style1">&#10;      .cls-1 {&#10;        fill: #f4f4f4;&#10;      }&#10;    </style>
  </defs>
  <g
     id="g8"
     transform="translate(-406074.28,-161854.66)">
    <path
       class="cls-1"
       d="m 705.75,277.69 h 55.15 c 39.2,0 65.4,22.56 69.96,51.05 3.19,18.91 3.19,37.14 0,56.06 -4.56,28.48 -30.54,50.59 -69.28,50.59 H 705.75 V 277.7 Z m 54.24,131.26 c 20.05,0 32.59,-10.94 36.46,-28.03 2.51,-11.39 2.51,-36.69 0,-48.31 -3.87,-17.32 -16.41,-28.48 -37.37,-28.48 h -19.14 v 104.82 z"
       id="path1" />
    <path
       class="cls-1"
       d="m 860.26,286.58 c 0,-10.03 8.2,-18.68 18.91,-18.68 10.71,0 18.91,8.66 18.91,18.68 0,10.71 -8.43,19.37 -18.91,19.37 -10.48,0 -18.91,-8.66 -18.91,-19.37 z m 1.83,36 h 34.18 v 112.8 h -34.18 z"
       id="path2" />
    <path
       class="cls-1"
       d="m 919.06,403.25 c 0,-24.84 20.97,-35.78 51.5,-35.78 h 19.14 v -7.06 c 0,-9.11 -4.1,-16.41 -18,-16.41 -11.39,0 -24.38,6.15 -32.81,11.39 L 927.5,335.34 c 8.66,-5.47 29.85,-15.04 51.04,-15.04 28.94,0 45.35,16.86 45.35,41.93 v 73.15 H 995.4 l -4.56,-11.85 c -6.61,7.07 -18,14.13 -31.45,14.13 -24.38,0 -40.33,-13.44 -40.33,-34.41 z m 70.64,2.28 v -19.14 h -15.72 c -14.13,0 -21.65,5.24 -21.65,14.36 0,8.43 5.47,13.22 14.13,13.22 6.84,0 15.27,-3.42 23.24,-8.43 z"
       id="path3" />
    <path
       class="cls-1"
       d="m 1061.27,407.36 c -0.91,-5.7 -1.14,-11.39 -1.14,-17.32 v -42.61 h -16.41 v -24.84 h 18 l 3.88,-29.85 h 28.71 v 29.85 h 25.75 v 24.84 h -25.75 v 41.47 c 0,5.01 0,9.57 0.91,13.67 1.6,7.75 5.7,9.57 13.44,9.57 3.42,0 7.29,-1.14 10.25,-2.51 l 8.21,24.61 c -6.61,2.05 -14.58,3.42 -20.97,3.42 -26.66,0 -41.47,-11.39 -44.89,-30.31 z"
       id="path4" />
    <path
       class="cls-1"
       d="m 1142.4,400.07 c -2.28,-15.04 -2.28,-27.12 0,-42.16 3.19,-22.11 24.38,-37.6 54.92,-37.6 30.54,0 51.73,15.5 55.15,37.6 2.28,15.04 2.28,27.12 0,42.16 -3.19,22.33 -24.38,37.6 -55.15,37.6 -30.77,0 -51.73,-15.27 -54.92,-37.6 z m 76.34,-7.3 c 1.14,-9.34 1.14,-18.23 0,-27.57 -1.37,-10.94 -10.03,-18.46 -21.42,-18.46 -11.39,0 -19.83,7.52 -21.19,18.46 -1.14,9.34 -1.14,18.23 0,27.57 1.37,11.17 10.03,18.46 21.19,18.46 11.16,0 20.05,-7.29 21.42,-18.46 z"
       id="path5" />
    <path
       class="cls-1"
       d="m 1279.6,322.58 h 25.75 l 4.33,13.22 c 11.85,-9.57 25.52,-15.5 38.28,-15.5 14.81,0 26.21,7.52 32.13,17.09 10.94,-9.8 25.07,-17.09 39.88,-17.09 24.16,0 41.47,16.18 41.47,43.98 v 71.1 h -34.18 v -69.96 c 0,-10.94 -3.42,-18.69 -14.13,-18.69 -8.43,0 -16.18,4.56 -25.07,12.08 0.68,2.05 0.68,4.1 0.68,6.38 v 70.19 h -34.18 v -69.96 c 0,-9.8 -2.73,-18.69 -14.13,-18.69 -9.34,0 -18.23,6.61 -26.66,14.81 v 73.83 h -34.18 v -112.8 z"
       id="path6" />
    <path
       class="cls-1"
       d="m 1492.46,277.69 h 63.12 c 28.48,0 49.22,15.95 49.22,41.93 0,14.36 -8.21,29.62 -21.19,33.04 16.18,3.88 28.71,18.46 28.71,36.69 0,25.52 -21.88,46.03 -51.04,46.03 h -68.82 z m 62.43,64.95 c 10.48,0 19.37,-9.11 19.37,-20.05 0,-10.94 -8.66,-20.28 -19.37,-20.28 h -27.57 v 40.33 z m 1.37,67.91 c 12.76,0 22.56,-9.8 22.33,-22.56 -0.23,-11.39 -9.11,-22.33 -23.01,-22.33 h -28.26 v 44.89 z"
       id="path7" />
    <path
       class="cls-1"
       d="m 1636.72,322.58 h 29.63 l 4.56,13.22 c 13.22,-10.25 26.43,-15.5 37.6,-15.5 v 28.71 c -12.99,0 -25.98,3.87 -37.6,12.31 v 74.06 h -34.18 v -112.8 z"
       id="path8" />
  </g>
  <g
     id="g61"
     transform="translate(-406074.28,-161854.66)">
    <path
       class="cls-1"
       d="m 381.62,445.39 c 0.41,0.92 1.81,0.54 1.68,-0.46 -0.71,-5.85 -2.14,-11.62 -3.18,-17.43 -1.34,-7.52 -2.01,-15.42 0.34,-22.69 0.76,-2.34 2.16,-4.86 4.58,-5.32 2.64,-0.5 4.97,1.68 6.69,3.73 11.73,13.96 19.67,30.78 31.65,44.53 0.98,1.12 2.24,2.32 3.71,2.1 1.64,-0.25 2.5,-2.26 2.15,-3.87 -0.36,-1.61 -1.54,-2.9 -2.65,-4.13 -18.12,-20.16 -27.43,-47.89 -25.12,-74.82 1.05,-12.25 4.36,-24.17 8.01,-35.94 0.76,-2.44 -2.22,-4.3 -4.1,-2.57 -4.04,3.71 -6.95,8.79 -8.93,13.97 -2.88,7.51 -4.26,15.53 -7.26,23 -1.4,3.5 -3.65,7.24 -7.38,7.93 -3.08,0.57 -6.08,-1.18 -8.58,-3.04 -6.72,-4.99 -12.42,-11.34 -16.65,-18.54 -1.4,-2.39 -2.85,-5.03 -4.7,-7.07 -1.73,-1.91 -4.88,-0.3 -4.32,2.21 3.35,15.08 26.14,80.84 34.04,98.44 z"
       id="path9" />
    <path
       class="cls-1"
       d="m 367.47,354.94 c 0.77,2.51 1.98,4.82 4.13,6.59 1.79,1.47 4.16,2.19 6.42,1.69 3.85,-0.84 5,-4.19 5.41,-7.33 0.43,-3.31 0.17,-6.83 -1.54,-9.71 -1.71,-2.87 -5.1,-4.91 -8.4,-4.33 -0.73,0.13 -1.5,0.53 -2.25,1.07 -3.76,2.7 -5.12,7.61 -3.76,12.02 z"
       id="path10" />
    <path
       class="cls-1"
       d="m 580.49,392.97 c 1.25,-4.83 2.13,-9.84 1.5,-14.79 -0.17,-1.34 -1.83,-5.5 -4.31,1.17 -2.71,14.2 -11.33,42.83 -39.92,63.04 -3.4,2.41 -7.75,3.2 -11.92,3.67 -2.45,0.28 -5.34,0.04 -6.76,-1.96 -1.55,-2.19 -0.51,-5.19 0.67,-7.6 7.98,-16.37 20.14,-30.48 27.82,-46.99 0.62,-1.34 1.2,-2.98 0.39,-4.23 -0.9,-1.39 -3.1,-1.34 -4.43,-0.35 -1.33,0.99 -2.03,2.59 -2.7,4.1 -11.04,24.71 -32.63,44.54 -58.28,53.54 -11.67,4.09 -23.96,5.99 -36.26,7.53 -2.55,0.32 -3.03,3.78 -0.67,4.77 5.06,2.14 10.92,2.67 16.49,2.34 8.07,-0.48 16,-2.53 24.08,-2.88 3.78,-0.17 8.15,0.33 10.31,3.42 1.79,2.55 1.42,5.99 0.74,9.03 -1.81,8.14 -5.29,15.92 -10.16,22.71 -1.61,2.25 -3.44,4.65 -4.55,7.16 -1.04,2.35 1.73,4.54 3.8,3 0.06,-0.04 0.11,-0.08 0.17,-0.13 6.86,-5.14 13.19,-11.06 19.54,-16.79 9.35,-8.44 19.29,-18.85 29.36,-26.43 33.86,-25.48 42.76,-54.31 45.11,-63.34 z"
       id="path11" />
    <path
       class="cls-1"
       d="m 482.37,480.67 c 3.3,-2.21 6.34,-4.81 7.43,-8.78 0.61,-2.22 0.29,-4.67 -1.09,-6.52 -2.35,-3.15 -5.9,-2.81 -8.95,-1.88 -3.21,0.97 -6.34,2.66 -8.27,5.39 -1.93,2.73 -2.41,6.64 -0.51,9.39 1.9,2.75 6.38,3.57 8.73,1.18 v 0 c 0.14,1.27 1.59,1.92 2.66,1.21 z"
       id="path12" />
    <path
       class="cls-1"
       d="m 409.69,487.44 c 12.76,10.97 27.06,19.59 42.51,25.63 v 0 c 2.81,1.1 6.01,2.22 9.33,2.22 0.65,0 1.31,-0.04 1.97,-0.14 2.77,-0.44 4.11,-2.69 4.2,-4.73 0.1,-2.09 -1.04,-4.53 -3.83,-5.24 -22.13,-5.69 -38.09,-13.44 -50.22,-24.37 -2.67,-2.41 -5.38,-5.27 -8.25,-8.3 -5.38,-5.68 -10.95,-11.56 -17.16,-15.43 -1.03,-0.64 -2.29,-0.49 -3.14,0.37 -0.86,0.87 -0.98,2.13 -0.32,3.14 1.6,2.44 3.7,4.83 5.55,6.93 0.74,0.84 1.44,1.64 2.05,2.37 5.22,6.27 11.04,12.18 17.28,17.55 z"
       id="path13" />
    <path
       class="cls-1"
       d="m 411.56,250.48 c -3.04,-0.05 -5.73,1.43 -6.94,3.8 -1.11,2.17 -0.79,4.67 0.89,6.84 1.45,1.88 3.81,2.99 6.17,2.99 0.48,0 0.96,-0.04 1.43,-0.14 1.61,-0.32 3.04,-1.14 4.03,-2.32 1.66,-1.97 1.96,-4.98 0.75,-7.32 -1.19,-2.28 -3.67,-3.79 -6.33,-3.85 z"
       id="path14" />
    <path
       class="cls-1"
       d="m 408.72,307.02 c -1.42,-0.02 -2.68,0.67 -3.24,1.77 -0.52,1.02 -0.37,2.18 0.41,3.2 0.68,0.88 1.78,1.4 2.89,1.4 0.22,0 0.45,-0.02 0.67,-0.06 0.75,-0.15 1.42,-0.53 1.88,-1.09 0.77,-0.92 0.92,-2.33 0.35,-3.42 -0.55,-1.07 -1.72,-1.77 -2.96,-1.8 z"
       id="path15" />
    <path
       class="cls-1"
       d="m 278.05,367.14 c -1.42,-0.02 -2.68,0.67 -3.24,1.77 -0.52,1.02 -0.37,2.18 0.41,3.2 0.68,0.88 1.78,1.4 2.89,1.4 0.22,0 0.45,-0.02 0.67,-0.06 0.75,-0.15 1.42,-0.53 1.88,-1.09 0.77,-0.92 0.92,-2.33 0.35,-3.42 -0.55,-1.07 -1.72,-1.77 -2.96,-1.8 z"
       id="path16" />
    <path
       class="cls-1"
       d="m 419.61,299.8 c -1.42,-0.02 -2.68,0.67 -3.24,1.77 -0.52,1.02 -0.37,2.18 0.41,3.2 0.68,0.88 1.78,1.4 2.89,1.4 0.22,0 0.45,-0.02 0.67,-0.06 0.75,-0.15 1.42,-0.53 1.88,-1.09 0.77,-0.92 0.92,-2.33 0.35,-3.42 -0.55,-1.07 -1.72,-1.77 -2.96,-1.8 z"
       id="path17" />
    <path
       class="cls-1"
       d="m 431.71,293.79 c -1.42,-0.02 -2.68,0.67 -3.24,1.77 -0.52,1.02 -0.37,2.18 0.41,3.2 0.68,0.88 1.78,1.4 2.89,1.4 0.22,0 0.45,-0.02 0.67,-0.06 0.75,-0.15 1.42,-0.53 1.88,-1.09 0.77,-0.92 0.92,-2.33 0.35,-3.42 -0.55,-1.07 -1.72,-1.77 -2.96,-1.8 z"
       id="path18" />
    <path
       class="cls-1"
       d="m 490.2,254.09 c -3.04,-0.05 -5.73,1.43 -6.94,3.8 -1.11,2.17 -0.79,4.67 0.89,6.84 1.45,1.88 3.81,2.99 6.17,2.99 0.48,0 0.96,-0.04 1.43,-0.14 1.61,-0.32 3.04,-1.14 4.03,-2.32 1.66,-1.97 1.96,-4.98 0.75,-7.32 -1.19,-2.28 -3.67,-3.79 -6.33,-3.85 z"
       id="path19" />
    <path
       class="cls-1"
       d="m 525.55,370.27 c -2.17,-0.04 -4.1,1.02 -4.96,2.71 -0.79,1.55 -0.56,3.34 0.63,4.89 1.03,1.34 2.72,2.14 4.41,2.14 0.34,0 0.69,-0.03 1.02,-0.1 1.15,-0.23 2.17,-0.82 2.88,-1.66 1.19,-1.41 1.4,-3.56 0.53,-5.23 -0.85,-1.63 -2.62,-2.71 -4.52,-2.75 z"
       id="path20" />
    <path
       class="cls-1"
       d="m 523.04,392.96 c -1.17,-0.02 -2.21,0.55 -2.67,1.46 -0.43,0.84 -0.3,1.8 0.34,2.63 0.56,0.72 1.46,1.15 2.38,1.15 0.18,0 0.37,-0.02 0.55,-0.05 0.62,-0.12 1.17,-0.44 1.55,-0.89 0.64,-0.76 0.76,-1.92 0.29,-2.82 -0.46,-0.88 -1.41,-1.46 -2.43,-1.48 z"
       id="path21" />
    <path
       class="cls-1"
       d="m 513.45,353.43 c -2.17,-0.04 -4.1,1.02 -4.96,2.71 -0.79,1.55 -0.56,3.34 0.63,4.89 1.03,1.34 2.72,2.14 4.41,2.14 0.34,0 0.69,-0.03 1.02,-0.1 1.15,-0.23 2.17,-0.82 2.88,-1.66 1.19,-1.41 1.4,-3.56 0.53,-5.23 -0.85,-1.63 -2.62,-2.71 -4.52,-2.75 z"
       id="path22" />
    <path
       class="cls-1"
       d="m 443.79,380.26 c 2.42,-0.48 4.57,-1.72 6.06,-3.49 2.49,-2.96 2.95,-7.48 1.12,-11 -1.76,-3.38 -5.59,-5.71 -9.53,-5.79 -4.55,-0.1 -8.65,2.14 -10.47,5.71 -1.66,3.26 -1.17,7 1.34,10.27 2.18,2.84 5.74,4.51 9.31,4.51 0.72,0 1.45,-0.07 2.16,-0.21 z"
       id="path23" />
    <path
       class="cls-1"
       d="m 271.03,255.41 c 0.72,0 1.45,-0.07 2.16,-0.21 2.42,-0.48 4.57,-1.72 6.06,-3.49 2.49,-2.96 2.95,-7.48 1.12,-11 -1.76,-3.38 -5.59,-5.71 -9.53,-5.79 -4.56,-0.11 -8.65,2.14 -10.47,5.71 -1.66,3.26 -1.17,7 1.34,10.27 2.18,2.84 5.74,4.51 9.31,4.51 z"
       id="path24" />
    <path
       class="cls-1"
       d="m 454.18,431.99 c 1.3,0 2.6,-0.12 3.89,-0.38 4.35,-0.86 8.21,-3.09 10.89,-6.27 4.46,-5.31 5.29,-13.42 2,-19.72 -3.17,-6.08 -10.05,-10.26 -17.13,-10.41 -8.19,-0.18 -15.58,3.85 -18.84,10.25 -2.97,5.83 -2.09,12.53 2.43,18.4 3.93,5.11 10.34,8.12 16.77,8.12 z"
       id="path25" />
    <path
       class="cls-1"
       d="m 432.35,265.88 c 0.6,0 1.19,-0.06 1.78,-0.17 2,-0.4 3.78,-1.42 5.01,-2.89 2.06,-2.45 2.44,-6.19 0.93,-9.09 -1.46,-2.79 -4.62,-4.72 -7.87,-4.79 -3.78,-0.06 -7.14,1.77 -8.64,4.72 -1.38,2.7 -0.97,5.79 1.11,8.5 1.8,2.34 4.74,3.72 7.69,3.72 z"
       id="path26" />
    <path
       class="cls-1"
       d="m 295.35,326.79 c -2.3,-0.03 -4.36,1.08 -5.27,2.88 -0.84,1.65 -0.59,3.54 0.68,5.18 1.1,1.43 2.89,2.27 4.69,2.27 0.36,0 0.73,-0.04 1.09,-0.11 1.22,-0.24 2.3,-0.87 3.06,-1.76 1.26,-1.49 1.49,-3.78 0.57,-5.55 -0.89,-1.71 -2.82,-2.88 -4.8,-2.92 z"
       id="path27" />
    <path
       class="cls-1"
       d="m 232.54,320.37 c 0.37,0 0.74,-0.04 1.11,-0.11 1.24,-0.25 2.35,-0.89 3.12,-1.8 1.29,-1.53 1.53,-3.87 0.58,-5.68 -0.92,-1.77 -2.84,-2.94 -4.9,-2.98 -2.36,-0.07 -4.43,1.11 -5.37,2.94 -0.86,1.69 -0.62,3.63 0.68,5.31 1.12,1.45 2.94,2.31 4.77,2.31 z"
       id="path28" />
    <path
       class="cls-1"
       d="m 577.9,346.82 c -2.71,-5.68 -6.56,-10.94 -11.12,-15.2 l -0.65,-0.61 c -2.01,-1.9 -4.52,-4.26 -7.05,-5.25 -1.03,-0.4 -1.85,-0.35 -2.44,0.15 -1.06,0.89 -0.91,2.87 -0.6,4.37 1.25,6.01 5.22,12.22 9.34,18.05 3.68,5.22 7.98,9.95 12.79,14.07 0.44,0.38 0.99,0.58 1.55,0.58 0.39,0 0.79,-0.1 1.16,-0.29 0.88,-0.47 1.36,-1.4 1.23,-2.42 -0.24,-1.55 -0.57,-3.12 -0.98,-4.67 -0.78,-2.99 -1.87,-5.95 -3.22,-8.78 z"
       id="path29" />
    <path
       class="cls-1"
       d="m 532.36,274.75 c -3.15,-3.39 -6.99,-6.24 -11.12,-8.23 l -0.59,-0.29 c -1.82,-0.89 -4.1,-2 -6.08,-2.14 -0.81,-0.06 -1.37,0.16 -1.68,0.63 -0.55,0.85 0,2.21 0.54,3.19 2.19,3.93 6.34,7.42 10.5,10.61 3.72,2.85 7.77,5.23 12.04,7.08 0.39,0.17 0.82,0.19 1.21,0.07 0.27,-0.09 0.53,-0.24 0.74,-0.46 0.51,-0.52 0.65,-1.28 0.33,-1.96 -0.51,-1.03 -1.09,-2.06 -1.71,-3.05 -1.2,-1.92 -2.61,-3.76 -4.18,-5.45 z"
       id="path30" />
    <path
       class="cls-1"
       d="m 425.89,387.65 c 0,-6.29 -1.2,-12.68 -3.48,-18.47 l -0.32,-0.83 c -1,-2.57 -2.24,-5.77 -4.1,-7.74 -0.76,-0.8 -1.52,-1.1 -2.27,-0.91 -1.34,0.35 -2.06,2.2 -2.43,3.69 -1.47,5.96 -0.56,13.27 0.65,20.28 1.07,6.28 2.92,12.39 5.48,18.17 0.24,0.53 0.65,0.94 1.15,1.18 0.35,0.17 0.75,0.25 1.17,0.23 1,-0.05 1.84,-0.69 2.15,-1.66 0.45,-1.5 0.83,-3.06 1.13,-4.63 0.58,-3.03 0.88,-6.17 0.88,-9.31 z"
       id="path31" />
    <path
       class="cls-1"
       d="m 469.6,336.99 c 0.03,-0.21 0.03,-0.42 0,-0.64 -0.12,-0.99 -0.81,-1.78 -1.81,-2.03 -1.55,-0.35 -3.13,-0.63 -4.72,-0.82 -3.09,-0.38 -6.25,-0.47 -9.4,-0.27 -6.41,0.41 -12.57,1.97 -18.32,4.65 l -0.81,0.37 c -2.52,1.16 -5.65,2.6 -7.51,4.57 -0.75,0.8 -1.01,1.58 -0.77,2.31 0.44,1.31 2.35,1.9 3.87,2.17 6.08,1.07 13.36,-0.31 20.33,-1.95 6.24,-1.47 12.26,-3.7 17.89,-6.61 0.69,-0.36 1.14,-1.01 1.25,-1.75 z"
       id="path32" />
    <path
       class="cls-1"
       d="m 449.24,555.51 c 0.05,-0.17 0.07,-0.35 0.08,-0.54 0,-0.85 -0.49,-1.59 -1.31,-1.91 -1.27,-0.46 -2.59,-0.87 -3.91,-1.21 -2.57,-0.66 -5.25,-1.08 -7.94,-1.25 -5.48,-0.34 -10.88,0.32 -16.04,1.97 l -0.72,0.23 c -2.26,0.71 -5.08,1.59 -6.87,3.07 -0.73,0.6 -1.03,1.23 -0.9,1.88 0.23,1.16 1.78,1.87 3.04,2.26 5.04,1.56 11.36,1.18 17.45,0.53 5.45,-0.58 10.79,-1.81 15.89,-3.68 0.63,-0.23 1.08,-0.73 1.25,-1.35 z"
       id="path33" />
    <path
       class="cls-1"
       d="m 563.76,453.13 v 0 c -1.77,0 -3.24,0.98 -4.73,2.08 -14.4,10.66 -27.76,22.82 -39.71,36.13 -2.84,3.17 -3.56,6.11 -1.98,8.05 0.79,0.97 1.95,1.45 3.44,1.45 1.12,0 2.42,-0.27 3.89,-0.82 10.3,-3.87 19.83,-10.27 27.56,-18.53 2.05,-2.19 16.56,-21.44 14.2,-26.85 -0.3,-0.69 -1.01,-1.5 -2.68,-1.51 z"
       id="path34" />
    <path
       class="cls-1"
       d="m 472.94,527.55 c 7.58,-0.6 15.02,-2.09 22.12,-4.45 3.55,-1.18 6.99,-2.37 10.07,-4.03 0.39,-0.21 0.76,-0.45 1.14,-0.7 1.09,-0.74 2.45,-0.67 3.45,0.2 1.01,0.87 1.29,2.26 0.7,3.45 -2.51,5.05 -7.72,10.03 -11.75,13.01 -6.59,4.86 -14.7,7.87 -22.83,8.48 -3.02,0.23 -6.1,0.16 -9.21,-0.19 -12.07,-1.35 -24.54,-6.95 -35.33,-16.05 -1.24,-1.05 -1.19,-2.55 -0.59,-3.57 0.6,-1.02 1.89,-1.8 3.43,-1.25 12.16,4.39 25.58,6.15 38.8,5.11 z"
       id="path35" />
    <path
       class="cls-1"
       d="m 482.77,552.56 c -0.77,-0.76 -2.39,0.22 -3.05,0.67 v 0 c -7.57,5.2 -15.89,9.43 -24.74,12.56 -15.67,5.55 -32.66,7.5 -49.15,5.64 -0.34,-0.04 -0.89,-0.13 -1.58,-0.25 l -0.13,-0.02 c -2.47,-0.43 -8.24,-1.45 -9.41,-0.37 -0.09,0.08 -0.15,0.18 -0.13,0.37 0.28,2.61 7.37,4.09 12.55,5.18 3.28,0.69 6.1,1.28 7.38,2.08 2.98,1.85 4.86,5.29 4.58,8.37 -0.22,2.42 -1.79,4.33 -4.43,5.37 -1.67,0.66 -3.61,0.81 -5.61,0.45 l -1.02,-0.19 c -0.92,-0.17 -1.92,-0.36 -2.94,-0.51 -0.11,-0.02 -0.22,-0.02 -0.32,-0.02 -1.13,0 -1.62,0.91 -1.74,1.49 -0.03,0.17 -0.28,1.65 1.3,2.04 6.12,1.51 12.5,2.27 18.95,2.27 h 0.02 c 18.34,0 36.69,-6.3 50.37,-17.28 2.97,-2.38 6.29,-5.97 5.67,-9.73 -2.77,0.08 -5.02,2.37 -7.21,4.59 l -0.88,0.88 c -3.1,3.09 -7.82,5.12 -10.85,2.27 -1.86,-1.74 -2.21,-4.65 -0.87,-7.08 1.89,-3.4 5.23,-4.78 8.46,-6.11 0.63,-0.26 1.26,-0.52 1.88,-0.79 4.6,-2.04 8.78,-5.12 12.09,-8.89 0.62,-0.71 1.6,-2.25 0.83,-3 z"
       id="path36" />
    <path
       class="cls-1"
       d="m 236.13,299.97 0.61,-0.11 c 6.34,-1.19 11.57,-5.25 16.62,-9.19 l 0.27,-0.21 c 25.46,-19.82 49.05,-34.05 72.11,-43.51 27.93,-11.46 56.46,-16.22 82.51,-13.77 2.84,0.25 10.31,-1.29 11.39,-4.28 0.49,-1.35 -0.25,-2.7 -2.19,-4 -1.29,-0.87 -3.58,-0.97 -5.6,-1.06 -0.89,-0.04 -1.72,-0.07 -2.33,-0.17 -1.24,-0.2 -2.46,-0.42 -3.69,-0.64 -2.5,-0.44 -5.08,-0.9 -7.67,-1.19 -14.83,-1.65 -30.52,-0.64 -46.65,3.02 -8.6,1.95 -17.29,4.65 -25.82,8.04 v 0 c -30.11,11.95 -56.71,31.21 -78.75,48.47 -5.73,4.48 -12.14,10.58 -10.89,18 l 0.1,0.61 z"
       id="path37" />
    <path
       class="cls-1"
       d="m 342.96,255.75 c -8.81,6.13 -15.98,13.22 -16.05,13.29 l -0.59,0.59 2.7,1.34 0.19,-0.03 c 0.69,-0.11 17.05,-2.71 22.42,-6.27 5.33,-3.53 15.66,-15.47 16.09,-15.98 l 0.37,-0.42 -1.51,-1.5 -0.31,0.06 c -0.58,0.11 -14.43,2.74 -23.3,8.92 z"
       id="path38" />
    <path
       class="cls-1"
       d="m 325.54,323.76 c 0.43,-1.06 0.88,-2.16 1.07,-3.35 0.3,-1.89 -0.09,-3.76 -0.46,-5.57 -0.39,-1.9 -0.76,-3.69 -0.35,-5.41 0.13,-0.53 0.52,-2.13 -0.73,-2.71 -1.16,-0.54 -2.19,0.66 -3.01,1.63 -0.28,0.32 -0.69,0.81 -0.86,0.9 -0.33,0.16 -1.59,0.52 -2.93,0.89 -3.7,1.04 -9.3,2.61 -11.38,4.41 -0.29,0.25 -0.57,0.51 -0.86,0.77 -1.15,1.04 -2.23,2.03 -3.69,2.47 -0.79,0.23 -1.99,0.59 -2.16,1.78 -0.23,1.62 1.69,2.18 2.51,2.42 1.64,0.48 5.08,3.01 8.12,5.24 2.97,2.18 5.55,4.07 6.88,4.46 h 0.04 c 0,0 0.48,0.14 0.48,0.14 1.73,0.46 3.52,0.94 4.38,2.6 0.11,0.21 0.3,0.43 0.63,0.52 0.26,0.07 0.61,0.08 1.07,-0.05 0.39,-0.11 0.73,-0.38 0.93,-0.76 0.25,-0.46 0.31,-1.04 0.15,-1.56 -0.14,-0.46 -0.39,-0.83 -0.62,-1.16 -0.09,-0.13 -0.17,-0.25 -0.25,-0.38 -0.62,-1.06 -0.14,-4.01 0.45,-5.74 0.18,-0.51 0.38,-1.02 0.59,-1.52 z"
       id="path39" />
    <path
       class="cls-1"
       d="m 458.7,483.67 c 0.09,-0.85 0.18,-1.73 0.06,-2.62 -0.18,-1.42 -0.85,-2.68 -1.49,-3.89 -0.68,-1.28 -1.32,-2.49 -1.38,-3.8 -0.02,-0.4 -0.07,-1.63 -1.09,-1.79 -0.94,-0.15 -1.43,0.93 -1.82,1.79 -0.13,0.29 -0.33,0.72 -0.43,0.82 -0.2,0.18 -1.03,0.7 -1.91,1.24 -2.44,1.51 -6.12,3.79 -7.23,5.51 -0.15,0.24 -0.3,0.48 -0.46,0.73 -0.6,0.98 -1.18,1.91 -2.13,2.53 -0.52,0.33 -1.3,0.83 -1.18,1.72 0.17,1.2 1.67,1.21 2.31,1.22 1.27,0 4.27,1.1 6.91,2.08 2.59,0.95 4.82,1.77 5.86,1.77 h 0.4 c 1.33,-0.04 2.72,-0.06 3.68,0.95 0.12,0.13 0.31,0.24 0.56,0.24 0.2,0 0.45,-0.07 0.76,-0.26 0.26,-0.16 0.44,-0.43 0.51,-0.74 0.08,-0.38 0,-0.81 -0.22,-1.15 -0.2,-0.3 -0.45,-0.51 -0.68,-0.7 -0.09,-0.07 -0.18,-0.14 -0.26,-0.22 -0.67,-0.63 -0.94,-2.85 -0.88,-4.2 0.02,-0.4 0.06,-0.81 0.1,-1.21 z"
       id="path40" />
    <path
       class="cls-1"
       d="m 475.55,369.75 c -0.68,-0.52 -1.39,-1.06 -2.21,-1.43 -1.31,-0.59 -2.74,-0.69 -4.12,-0.78 -1.45,-0.1 -2.82,-0.19 -3.98,-0.83 -0.36,-0.2 -1.44,-0.79 -2.11,-0.01 -0.62,0.72 0.04,1.69 0.58,2.47 0.18,0.26 0.45,0.65 0.48,0.79 0.05,0.27 0.06,1.24 0.06,2.27 0.02,2.85 0.04,7.16 0.93,9.01 0.12,0.26 0.25,0.51 0.39,0.77 0.53,1.03 1.02,2 1.05,3.13 0.01,0.61 0.03,1.54 0.86,1.9 1.12,0.49 1.91,-0.78 2.25,-1.31 0.67,-1.08 3.18,-3.03 5.4,-4.76 2.17,-1.69 4.05,-3.15 4.59,-4.03 l 0.02,-0.02 0.19,-0.32 c 0.67,-1.15 1.38,-2.33 2.75,-2.61 0.18,-0.04 0.37,-0.13 0.51,-0.35 0.11,-0.17 0.18,-0.42 0.17,-0.78 0,-0.3 -0.13,-0.59 -0.37,-0.82 -0.28,-0.27 -0.69,-0.42 -1.1,-0.42 -0.36,0 -0.68,0.12 -0.96,0.21 -0.11,0.04 -0.22,0.07 -0.33,0.1 -0.89,0.24 -2.93,-0.7 -4.06,-1.46 -0.34,-0.23 -0.66,-0.48 -0.99,-0.72 z"
       id="path41" />
    <path
       class="cls-1"
       d="m 486.65,347.52 c -1.52,-0.74 -2.79,-0.84 -3.78,-0.29 -2.06,1.14 0.36,6.64 4.31,14.9 1.11,2.33 2.07,4.35 2.33,5.23 4.27,14.63 3.74,30.27 -1.49,44.02 l -0.14,0.37 c -0.63,1.63 -1.27,3.32 -1.21,5.13 0.07,2 1.27,4.26 3.46,4.69 0.25,0.05 0.5,0.07 0.75,0.07 2.06,0 3.81,-1.68 5.15,-3.2 4.35,-4.96 8.84,-10.08 12.08,-15.99 2.56,-4.66 5.36,-11.82 4.18,-19.51 -1.07,-7 -17.2,-31.31 -25.64,-35.42 z"
       id="path42" />
    <path
       class="cls-1"
       d="m 392.25,310.11 c 9.66,-11.83 22.87,-20.32 37.22,-23.9 l 0.39,-0.1 c 1.71,-0.42 3.47,-0.86 4.94,-1.94 1.62,-1.2 2.79,-3.47 1.9,-5.5 -0.96,-2.21 -3.69,-2.78 -5.95,-3.02 -6.58,-0.72 -13.37,-1.46 -20.11,-0.74 -5.31,0.57 -12.83,2.37 -18.5,7.72 -5.17,4.87 -16.06,31.91 -14.64,41.14 0.26,1.66 0.9,2.75 1.91,3.25 0.18,0.09 0.37,0.13 0.57,0.13 2.11,0 5.1,-4.9 9.28,-12.15 1.29,-2.24 2.41,-4.17 2.99,-4.89 z"
       id="path43" />
    <path
       class="cls-1"
       d="m 358.47,323.59 c 0.37,-1.43 0.59,-2.9 0.81,-4.32 l 0.08,-0.51 c 1.58,-10.14 4.2,-18.43 8.01,-25.34 4.56,-8.26 11.14,-14.76 18.52,-18.28 l 0.2,-0.1 c 1.04,-0.49 2.21,-1.05 3.23,-1.77 1.04,-0.73 1.38,-1.98 0.84,-3.12 -0.54,-1.13 -1.71,-1.67 -2.93,-1.34 -5.54,1.5 -10.64,4.35 -14.76,8.25 -0.39,0.37 -0.77,0.74 -1.15,1.12 l -0.1,0.1 c -1.27,1.26 -2.47,2.46 -3.91,3.29 -1.46,0.84 -3.1,1.12 -4.4,0.77 -0.92,-0.25 -1.64,-0.82 -2.14,-1.7 -0.43,-0.77 -0.6,-1.72 -0.47,-2.68 0.29,-2.18 1.86,-4.15 4.51,-5.68 1.34,-0.77 2.77,-1.36 4.29,-1.97 0.73,-0.3 1.44,-0.58 2.13,-0.89 0.68,-0.3 1.34,-0.61 1.99,-0.94 1.23,-0.63 1.7,-2 1.13,-3.25 -0.43,-0.94 -1.29,-1.48 -2.24,-1.48 -0.32,0 -0.64,0.06 -0.97,0.19 -9.12,3.61 -17.12,9.51 -23.14,17.06 -7.83,9.82 -12.1,22.11 -12.02,34.61 -0.17,2.28 -0.2,4.48 -0.1,6.66 0.04,0.85 0.13,1.76 0.65,2.58 0.73,1.13 2.24,1.63 3.35,1.07 0.34,-0.17 1.39,-0.71 1.47,-3.04 0.24,-7.24 1.12,-14.5 2.62,-21.59 0.43,-2.05 1.03,-4.32 2.65,-5.42 1.87,-1.27 4.83,-0.7 6.89,-0.16 0.97,0.25 1.8,0.63 2.46,1.12 3.28,2.44 2,6.47 0.75,10.36 l -0.09,0.29 c -1.6,5.02 -2.5,10.23 -2.69,15.51 -0.04,1.2 0.76,2.15 1.95,2.32 1.2,0.17 2.24,-0.52 2.54,-1.7 z"
       id="path44" />
    <path
       class="cls-1"
       d="m 554.29,282.66 38.66,22.84 c 0.88,0.52 1.87,1.05 2.91,1.05 0.25,0 0.5,-0.03 0.75,-0.1 1.43,-0.38 2.25,-1.07 2.43,-2.04 0.44,-2.32 -3.22,-5.3 -4.81,-6.47 -1.87,-1.37 -3.58,-3.06 -5.23,-4.68 -1.69,-1.66 -3.44,-3.38 -5.4,-4.83 -7.88,-5.82 -17.07,-9.63 -26.57,-11.02 -1.39,-0.2 -3.23,0 -4.22,0.92 -0.5,0.47 -0.74,1.07 -0.68,1.75 0.11,1.37 1.49,2.19 2.16,2.58 z"
       id="path45" />
    <path
       class="cls-1"
       d="m 617.89,322.12 c -1.75,-4.7 -4.71,-8.94 -8.56,-12.27 -1.36,-1.18 -5.98,-4.92 -8.2,-3.74 -0.88,0.47 -1.21,1.54 -1,3.2 0.36,2.78 2.12,5.74 3.82,8.59 1.12,1.89 2.19,3.67 2.82,5.33 1.93,5.07 3.25,10.34 3.93,15.67 l 0.02,0.19 c 0.17,1.36 0.35,2.76 1.12,3.98 0.66,1.04 1.9,1.86 3.16,1.86 0.37,0 0.74,-0.07 1.09,-0.22 1.28,-0.55 1.86,-1.92 2.22,-3.05 2.05,-6.35 1.9,-13.3 -0.43,-19.55 z"
       id="path46" />
    <path
       class="cls-1"
       d="m 583.93,318.4 c -4.9,-4.9 -10.51,-8.64 -16.24,-10.8 -2.02,-0.76 -8.71,-3.06 -9.78,-0.49 -0.42,1.01 0.06,2.51 1.44,4.43 2.31,3.23 5.97,5.99 9.5,8.66 2.33,1.76 4.54,3.42 6.28,5.15 5.32,5.27 10.26,11.09 14.69,17.31 l 0.15,0.22 c 1.13,1.58 2.29,3.22 3.83,4.33 1.32,0.95 2.98,1.34 4.08,0.71 0.32,-0.18 0.59,-0.45 0.78,-0.82 0.7,-1.32 0.22,-3.29 -0.27,-4.86 -2.8,-8.84 -7.94,-17.3 -14.45,-23.83 z"
       id="path47" />
    <path
       class="cls-1"
       d="m 234.18,337.75 c -9.25,-8.1 -19.87,-14.88 -22.26,-12.18 -2.39,2.7 5.72,12.31 14.97,20.4 7.84,6.86 16.66,12.78 20.63,12.78 0.71,0 1.27,-0.19 1.63,-0.6 2.39,-2.7 -5.72,-12.31 -14.97,-20.4 z"
       id="path48" />
    <path
       class="cls-1"
       d="m 317.77,224.08 c 1.3,0 2.93,-0.19 4.89,-0.57 4.61,-0.9 10.46,-2.77 16.46,-5.25 6,-2.48 11.45,-5.29 15.35,-7.91 4.25,-2.85 6.07,-5.08 5.43,-6.62 -0.64,-1.54 -3.52,-1.82 -8.55,-0.84 -4.61,0.9 -10.46,2.77 -16.46,5.25 -6,2.48 -11.45,5.29 -15.35,7.91 -4.25,2.85 -6.07,5.08 -5.43,6.62 0.39,0.94 1.62,1.41 3.66,1.41 z"
       id="path49" />
    <path
       class="cls-1"
       d="m 455.73,249.33 0.63,0.59 0.34,-0.8 c 2.33,-5.44 7.07,-8.68 14.47,-9.89 l 0.84,-0.14 -0.41,-0.74 c -6,-10.97 -13.19,-21.32 -21.39,-30.78 l -0.54,-0.62 -0.44,0.69 c -3.45,5.46 -8.34,8.82 -14.53,9.98 l -0.74,0.14 0.29,0.69 c 5.07,11.86 12.29,22.25 21.46,30.87 z"
       id="path50" />
    <path
       class="cls-1"
       d="m 591.72,409.88 c 3.07,-9.02 4.5,-18.8 2.51,-28.11 -0.34,-1.58 -0.77,-3.19 -0.54,-4.78 0.24,-1.6 1.36,-3.2 2.98,-3.39 0.99,-0.12 1.95,0.3 2.86,0.71 l 16.58,7.46 c 0.97,0.44 1.83,1.13 2.32,2.07 1.36,2.58 -0.99,4.59 -3.26,5.08 -1.82,0.4 -3.74,0.17 -5.57,0.57 -5.02,1.1 -7.74,6.38 -9.78,11.07 -3.89,8.95 -7.77,17.9 -11.66,26.85 -1.87,4.31 -4.08,9.64 -7.55,13.37 -1.57,1.69 -4.35,-0.11 -3.42,-2.21 1.34,-3.01 3.55,-5.76 5.18,-8.48 3.79,-6.3 6.97,-13.25 9.33,-20.19 z"
       id="path51" />
    <path
       class="cls-1"
       d="m 354.87,407.65 c -2.68,-4.97 -5.36,-9.93 -8.03,-14.9 -1.4,-2.6 -2.83,-5.73 -1.52,-8.38 0.47,-0.96 1.27,-1.74 1.75,-2.71 0.48,-0.96 0.52,-2.3 -0.33,-2.95 -0.94,-0.72 -2.29,-0.2 -3.34,0.34 -2.87,1.46 -9.88,4.3 -12.75,5.76 -0.51,0.26 -1.05,0.54 -1.35,1.03 -0.49,0.79 -0.17,1.88 0.48,2.56 0.77,0.82 3.74,-1.15 8.94,0.78 0.42,0.16 1.03,0.54 1.36,0.83 5.52,4.95 10.84,13 13.95,21.2 0.78,2.05 1.29,4.5 2.59,6.34 0.54,0.77 1.8,0.39 1.76,-0.55 -0.12,-3.27 -2.02,-6.65 -3.49,-9.36 z"
       id="path52" />
    <path
       class="cls-1"
       d="m 395.25,438.6 c 0.32,0.68 0.65,1.38 1.21,1.88 0.56,0.5 1.42,0.75 2.09,0.4 0.88,-0.47 1,-1.67 0.92,-2.66 -0.21,-2.65 -2.42,-12.1 -6.41,-11.7 -4.3,0.43 1.38,10.35 2.19,12.08 z"
       id="path53" />
    <path
       class="cls-1"
       d="m 402.61,444.76 c -0.52,-0.54 -1.06,-1.1 -1.76,-1.39 -0.7,-0.29 -1.59,-0.26 -2.11,0.29 -0.69,0.73 -0.4,1.9 0,2.82 1.05,2.44 6.21,10.68 9.86,9.02 3.93,-1.78 -4.66,-9.36 -5.99,-10.74 z"
       id="path54" />
    <path
       class="cls-1"
       d="m 424.89,468.67 c -0.71,-0.26 -1.44,-0.52 -2.2,-0.48 -0.76,0.04 -1.54,0.46 -1.76,1.18 -0.29,0.95 0.48,1.89 1.24,2.54 2.02,1.73 10.3,6.89 12.85,3.8 2.74,-3.32 -8.32,-6.38 -10.12,-7.04 z"
       id="path55" />
    <path
       class="cls-1"
       d="m 413.5,457.99 c -0.52,-0.54 -1.06,-1.1 -1.76,-1.39 -0.7,-0.29 -1.59,-0.26 -2.11,0.29 -0.69,0.73 -0.4,1.9 0,2.82 1.05,2.44 6.21,10.68 9.86,9.02 3.93,-1.78 -4.66,-9.36 -5.99,-10.74 z"
       id="path56" />
    <path
       class="cls-1"
       d="m 271.26,353.37 c -4.2,-0.93 -7.92,-3.44 -10.95,-6.48 -3.03,-3.04 -5.44,-6.63 -7.83,-10.19 -0.66,-0.99 -1.36,-2.15 -1.01,-3.29 0.37,-1.21 1.8,-1.8 3.07,-1.74 1.27,0.06 2.45,0.62 3.67,0.98 5.38,1.58 11.27,-0.65 16.73,0.63 8.61,2.02 13.21,11.83 21.42,15.1 5.82,2.31 12.86,1.05 18.15,4.4 2.74,1.73 4.64,4.48 6.45,7.16 1.85,2.72 3.7,5.45 5.55,8.17 0.51,0.76 1.05,1.63 0.84,2.52 -0.34,1.45 -2.26,1.75 -3.76,1.74 -3.46,-0.02 -6.92,-0.05 -10.38,-0.07 -3.79,-0.03 -7.69,-0.08 -11.16,-1.6 -4.54,-1.99 -7.56,-6.11 -10.75,-9.69 -1.62,-1.81 -3.35,-3.47 -5.25,-4.99 -1.7,-1.37 -3.48,-1.67 -5.65,-1.85 -3.04,-0.26 -6.14,-0.11 -9.14,-0.77 z"
       id="path57" />
    <path
       class="cls-1"
       d="m 279.6,309.45 c -2.51,2.38 -5.86,3.74 -9.27,4.39 -3.41,0.65 -6.9,0.66 -10.37,0.66 -0.96,0 -2.06,-0.06 -2.67,-0.8 -0.65,-0.79 -0.41,-2.01 0.2,-2.82 0.61,-0.81 1.51,-1.35 2.3,-2.01 3.47,-2.87 4.6,-7.8 7.9,-10.86 5.21,-4.83 13.89,-3.5 19.76,-7.51 4.16,-2.84 6.46,-8.09 11.08,-10.12 2.39,-1.05 5.1,-1.08 7.71,-1.09 2.66,-0.01 5.33,-0.03 7.99,-0.04 0.74,0 1.57,0.03 2.07,0.57 0.82,0.88 0.17,2.29 -0.51,3.28 -1.56,2.29 -3.13,4.58 -4.69,6.88 -1.71,2.51 -3.49,5.09 -6.07,6.71 -3.37,2.13 -7.5,2.3 -11.34,2.83 -1.94,0.27 -3.84,0.68 -5.71,1.26 -1.69,0.52 -2.68,1.57 -3.78,2.93 -1.54,1.91 -2.82,4.04 -4.61,5.74 z"
       id="path58" />
    <path
       class="cls-1"
       d="m 547,338.72 c -1.48,-3.45 -8.1,-17.62 -10.13,-21.23 -0.02,-0.04 -0.05,-0.08 -0.07,-0.12 2.34,-5.07 3.72,-5.58 4.89,-10.57 -9.11,-9.44 -24.25,-10.25 -42.18,-15.99 v 0 c -3.3,-1.43 -7.23,-3.67 -13.69,-8.35 -4.44,-3.22 -23.39,-16.45 -28.29,-18.25 -0.04,-0.01 -0.08,-0.03 -0.12,-0.04 -1.45,-0.52 -2.86,1.6 -1.94,2.93 0.99,1.43 2.41,2.61 3.69,3.76 3.93,3.52 20.87,19.61 23.16,24.96 0.87,2.02 1.6,4.41 0.78,6.65 -0.98,2.7 -3.75,3.99 -6.21,4.66 -5.16,1.42 -40.17,-2.56 -43.98,1.57 -1.14,1.23 -1.64,4.8 2.13,4.46 7.49,-0.67 33.4,1.43 41.11,3.24 5.55,1.3 9.95,2.02 13.73,2.85 0,0.02 -0.01,0.04 -0.02,0.06 14.44,3.25 16.33,13.82 25.12,25.45 1.5,-1.21 2.91,-2.43 4.26,-3.67 0.8,0.89 1.56,1.81 2.26,2.78 1.63,2.24 7.98,11.27 9.32,13.74 1.86,3.43 3.91,6.82 5.92,10.14 0.87,1.44 2.43,5.23 4.61,4.73 3.79,-0.87 -2.06,-11.62 -2.82,-13.39 -1.48,-3.45 -8.1,-17.62 -10.13,-21.23 -0.73,-1.29 -1.51,-2.57 -2.34,-3.82 2.2,-2.57 4.14,-5.18 5.84,-7.81 2.54,3.6 6.37,9.16 7.38,11.02 1.86,3.43 3.91,6.82 5.92,10.14 0.87,1.44 2.43,5.23 4.61,4.73 3.79,-0.87 -2.06,-11.62 -2.82,-13.39 z"
       id="path59" />
    <path
       class="cls-1"
       d="m 475.47,293.75 c 1.98,2.39 2.26,6.45 -0.25,8.28 -1.34,0.98 -3.13,1.11 -4.79,0.98 -2.53,-0.18 -5.12,-0.91 -7.01,-2.59 -1.89,-1.69 -2.89,-4.49 -1.96,-6.84 0.93,-2.35 3.75,-4.7 6.84,-3.72 2.77,0.59 4.98,2.52 7.16,3.89 z"
       id="path60" />
    <path
       class="cls-1"
       d="m 566.4,366.89 c -0.52,-2.36 -1.28,-4.65 -2.22,-6.87 -0.81,-1.9 -3.02,-2.78 -4.92,-1.96 v 0 c -1.81,0.78 -2.7,2.83 -2.02,4.67 0.2,0.54 0.39,1.09 0.57,1.65 3.32,10.39 1.99,21.8 -1.63,32.09 -3.04,8.65 -7.62,16.66 -12.41,24.51 -1.36,2.23 1.36,4.79 3.47,3.23 0.13,-0.1 0.26,-0.2 0.39,-0.31 1.81,-1.51 3.02,-3.6 4.2,-5.64 4.54,-7.91 9.11,-15.88 12.12,-24.48 3.01,-8.6 4.41,-17.98 2.45,-26.87 z"
       id="path61" />
  </g>
  <g
     id="g89"
     transform="translate(-406074.28,-161854.66)">
    <path
       class="cls-1"
       d="m 708.14,484.05 h 16.15 c 7.25,0 12.13,5.91 12.13,12.62 0,5.3 -3.05,10.06 -7.86,11.7 l 7.93,17.19 h -5.37 l -7.5,-16.21 h -9.81 v 16.21 h -5.67 z m 14.88,20.85 c 4.2,0 7.68,-3.47 7.68,-8.35 0,-4.88 -3.47,-8.05 -7.68,-8.05 h -9.2 v 16.4 z"
       id="path62" />
    <path
       class="cls-1"
       d="m 743.5,516.29 c -0.49,-3.96 -0.55,-7.13 0,-11.09 0.79,-5.97 5.85,-9.94 13.04,-9.94 7.19,0 12.32,3.96 13.17,9.94 0.3,2.62 0.43,4.94 0.3,7.19 h -21.34 c 0,1.58 0.12,2.93 0.43,3.96 0.73,3.41 3.84,5.73 7.99,5.73 4.15,0 7.19,-1.28 9.57,-3.05 l 1.77,3.9 c -3.23,2.07 -6.58,3.29 -11.58,3.29 -7.44,0 -12.62,-4.02 -13.35,-9.94 z m 21.03,-7.37 c 0,-1.04 -0.12,-1.95 -0.18,-2.93 -0.49,-3.84 -3.53,-6.58 -7.74,-6.58 -4.21,0 -7.31,2.74 -7.8,6.58 -0.06,0.98 -0.12,2.01 -0.12,2.93 h 15.85 z"
       id="path63" />
    <path
       class="cls-1"
       d="m 779.72,516.11 c -0.55,-3.6 -0.49,-7.13 0,-10.73 0.73,-5.55 5.18,-10.12 11.52,-10.12 2.62,0 5.73,1.04 8.9,3.17 v -16.64 h 5.67 v 43.77 h -5.24 l -0.43,-2.26 c -3.23,2.13 -6.7,2.93 -9.02,2.93 -6.34,0 -10.61,-4.57 -11.4,-10.12 z m 20.42,2.99 v -16.52 c -3.47,-2.19 -5.85,-2.86 -7.86,-2.86 -3.72,0 -6.46,2.68 -7.01,6.4 -0.43,2.74 -0.43,6.58 0,9.2 0.61,3.84 3.29,6.46 7.01,6.46 2.01,0 4.08,-0.67 7.86,-2.68 z"
       id="path64" />
    <path
       class="cls-1"
       d="m 816.36,516.29 c -0.49,-3.96 -0.55,-7.13 0,-11.09 0.79,-5.97 5.85,-9.94 13.04,-9.94 7.19,0 12.32,3.96 13.17,9.94 0.3,2.62 0.43,4.94 0.3,7.19 h -21.34 c 0,1.58 0.12,2.93 0.43,3.96 0.73,3.41 3.84,5.73 7.99,5.73 4.15,0 7.19,-1.28 9.57,-3.05 l 1.77,3.9 c -3.23,2.07 -6.58,3.29 -11.58,3.29 -7.44,0 -12.62,-4.02 -13.35,-9.94 z m 21.03,-7.37 c 0,-1.04 -0.12,-1.95 -0.18,-2.93 -0.49,-3.84 -3.53,-6.58 -7.74,-6.58 -4.21,0 -7.31,2.74 -7.8,6.58 -0.06,0.98 -0.12,2.01 -0.12,2.93 h 15.85 z"
       id="path65" />
    <path
       class="cls-1"
       d="m 875.07,484.05 h 13.72 c 6.7,0 11.89,4.39 11.89,10.73 0,4.51 -3.05,8.11 -5.61,8.84 4.69,1.22 8.23,5.06 8.23,10.24 0,6.64 -5.49,11.7 -12.92,11.7 h -15.3 v -41.51 z m 13.54,18.04 c 3.66,0 6.89,-2.99 6.89,-6.95 0,-3.96 -3.11,-6.83 -6.89,-6.83 h -7.8 v 13.78 z m 1.1,19.26 c 4.75,0 7.99,-3.29 7.99,-7.68 0,-3.78 -2.8,-7.62 -8.47,-7.62 h -8.41 v 15.3 h 8.9 z"
       id="path66" />
    <path
       class="cls-1"
       d="m 912.81,495.93 h 4.94 l 0.73,3.96 c 3.6,-2.8 6.95,-4.63 10.12,-4.63 v 4.94 c -3.29,0 -6.46,1.34 -10.12,4.2 v 21.15 h -5.67 v -29.63 z"
       id="path67" />
    <path
       class="cls-1"
       d="m 933.85,517.15 c 0,-6.04 5,-9.08 12.86,-9.08 h 6.83 v -2.68 c 0,-3.47 -2.07,-6.04 -6.22,-6.04 -3.42,0 -7.01,1.83 -9.27,3.23 l -2.07,-3.53 c 2.13,-1.28 7.19,-3.78 12.31,-3.78 6.46,0 10.85,4.08 10.85,10.42 v 19.87 h -4.75 l -0.73,-3.47 c -2.26,1.77 -6.16,4.15 -9.69,4.15 -6.04,0 -10.12,-3.66 -10.12,-9.08 z m 19.69,1.58 v -7.26 h -6.4 c -4.82,0 -7.8,1.77 -7.8,5.3 0,3.53 2.13,5.37 5.61,5.37 1.77,0 4.94,-1.04 8.59,-3.41 z"
       id="path68" />
    <path
       class="cls-1"
       d="m 968.6,522.69 1.58,-3.9 c 4.21,2.32 7.44,3.35 11.34,3.35 2.74,0 5.49,-1.83 5.49,-5 0,-2.62 -2.32,-3.84 -7.01,-4.69 -5.43,-0.91 -10.42,-3.41 -10.42,-8.9 0,-5.49 4.45,-8.29 10.55,-8.29 5.3,0 9.63,2.74 11.28,3.96 l -2.2,3.47 c -2.86,-2.01 -5.85,-3.29 -8.78,-3.29 -2.93,0 -5.3,1.71 -5.3,4.51 0,2.62 2.19,3.84 5.73,4.57 6.22,1.4 11.7,2.93 11.7,8.6 0,5.67 -4.63,9.08 -10.73,9.08 -5.24,0 -8.84,-1.1 -13.23,-3.47 z"
       id="path69" />
    <path
       class="cls-1"
       d="m 1002.5,487.4 c 0,-1.95 1.59,-3.53 3.6,-3.53 2.01,0 3.6,1.58 3.6,3.53 0,2.07 -1.58,3.72 -3.6,3.72 -2.02,0 -3.6,-1.65 -3.6,-3.72 z m 0.79,8.53 h 5.67 v 29.63 h -5.67 z"
       id="path70" />
    <path
       class="cls-1"
       d="m 1022.68,481.79 h 5.67 v 43.77 h -5.67 z"
       id="path71" />
    <path
       class="cls-1"
       d="m 1039.51,516.29 c -0.49,-3.96 -0.55,-7.13 0,-11.09 0.79,-5.97 5.85,-9.94 13.04,-9.94 7.19,0 12.32,3.96 13.17,9.94 0.3,2.62 0.43,4.94 0.3,7.19 h -21.34 c 0,1.58 0.12,2.93 0.43,3.96 0.73,3.41 3.84,5.73 7.99,5.73 4.15,0 7.19,-1.28 9.57,-3.05 l 1.77,3.9 c -3.23,2.07 -6.58,3.29 -11.58,3.29 -7.44,0 -12.62,-4.02 -13.35,-9.94 z m 21.02,-7.37 c 0,-1.04 -0.12,-1.95 -0.18,-2.93 -0.49,-3.84 -3.53,-6.58 -7.74,-6.58 -4.21,0 -7.31,2.74 -7.8,6.58 -0.06,0.98 -0.12,2.01 -0.12,2.93 h 15.85 z"
       id="path72" />
    <path
       class="cls-1"
       d="m 1076.39,487.4 c 0,-1.95 1.59,-3.53 3.6,-3.53 2.01,0 3.6,1.58 3.6,3.53 0,2.07 -1.58,3.72 -3.6,3.72 -2.02,0 -3.6,-1.65 -3.6,-3.72 z m 0.79,8.53 h 5.67 v 29.63 h -5.67 z"
       id="path73" />
    <path
       class="cls-1"
       d="m 1095.96,495.93 h 4.94 l 0.73,3.96 c 3.6,-2.8 6.95,-4.63 10.12,-4.63 v 4.94 c -3.29,0 -6.46,1.34 -10.12,4.2 v 21.15 h -5.67 v -29.63 z"
       id="path74" />
    <path
       class="cls-1"
       d="m 1117,517.15 c 0,-6.04 5,-9.08 12.86,-9.08 h 6.83 v -2.68 c 0,-3.47 -2.07,-6.04 -6.22,-6.04 -3.42,0 -7.01,1.83 -9.27,3.23 l -2.07,-3.53 c 2.13,-1.28 7.19,-3.78 12.31,-3.78 6.46,0 10.85,4.08 10.85,10.42 v 19.87 h -4.75 l -0.73,-3.47 c -2.26,1.77 -6.16,4.15 -9.69,4.15 -6.04,0 -10.12,-3.66 -10.12,-9.08 z m 19.69,1.58 v -7.26 h -6.4 c -4.82,0 -7.8,1.77 -7.8,5.3 0,3.53 2.13,5.37 5.61,5.37 1.77,0 4.94,-1.04 8.59,-3.41 z"
       id="path75" />
    <path
       class="cls-1"
       d="m 1174.12,516.11 c -0.55,-3.6 -0.49,-7.13 0,-10.73 0.73,-5.55 5.18,-10.12 11.52,-10.12 2.62,0 5.73,1.04 8.9,3.17 v -16.64 h 5.67 v 43.77 h -5.24 l -0.43,-2.26 c -3.23,2.13 -6.7,2.93 -9.02,2.93 -6.34,0 -10.61,-4.57 -11.4,-10.12 z m 20.42,2.99 v -16.52 c -3.47,-2.19 -5.85,-2.86 -7.86,-2.86 -3.72,0 -6.46,2.68 -7.01,6.4 -0.43,2.74 -0.43,6.58 0,9.2 0.61,3.84 3.29,6.46 7.01,6.46 2.01,0 4.08,-0.67 7.86,-2.68 z"
       id="path76" />
    <path
       class="cls-1"
       d="m 1210.77,516.29 c -0.49,-3.96 -0.55,-7.13 0,-11.09 0.79,-5.97 5.85,-9.94 13.04,-9.94 7.19,0 12.32,3.96 13.17,9.94 0.3,2.62 0.43,4.94 0.3,7.19 h -21.34 c 0,1.58 0.12,2.93 0.43,3.96 0.73,3.41 3.84,5.73 7.99,5.73 4.15,0 7.19,-1.28 9.57,-3.05 l 1.77,3.9 c -3.23,2.07 -6.58,3.29 -11.58,3.29 -7.44,0 -12.62,-4.02 -13.35,-9.94 z m 21.03,-7.37 c 0,-1.04 -0.12,-1.95 -0.18,-2.93 -0.49,-3.84 -3.53,-6.58 -7.74,-6.58 -4.21,0 -7.31,2.74 -7.8,6.58 -0.06,0.98 -0.12,2.01 -0.12,2.93 h 15.85 z"
       id="path77" />
    <path
       class="cls-1"
       d="m 1269.48,484.05 h 11.34 c 10.06,0 16.88,6.16 17.92,13.65 0.67,5 0.67,9.57 0,14.57 -1.04,7.5 -7.62,13.29 -17.37,13.29 h -11.89 z m 11.64,37.06 c 6.34,0 10.97,-3.66 11.89,-9.08 0.67,-3.9 0.67,-10 0,-14.14 -0.91,-5.37 -5.67,-9.39 -12.37,-9.39 h -5.49 v 32.61 z"
       id="path78" />
    <path
       class="cls-1"
       d="m 1309.23,487.4 c 0,-1.95 1.59,-3.53 3.6,-3.53 2.01,0 3.6,1.58 3.6,3.53 0,2.07 -1.58,3.72 -3.6,3.72 -2.02,0 -3.6,-1.65 -3.6,-3.72 z m 0.79,8.53 h 5.67 v 29.63 h -5.67 z"
       id="path79" />
    <path
       class="cls-1"
       d="m 1325.14,517.15 c 0,-6.04 5,-9.08 12.86,-9.08 h 6.83 v -2.68 c 0,-3.47 -2.07,-6.04 -6.22,-6.04 -3.42,0 -7.01,1.83 -9.27,3.23 l -2.07,-3.53 c 2.13,-1.28 7.19,-3.78 12.31,-3.78 6.46,0 10.85,4.08 10.85,10.42 v 19.87 h -4.75 l -0.73,-3.47 c -2.26,1.77 -6.16,4.15 -9.69,4.15 -6.04,0 -10.12,-3.66 -10.12,-9.08 z m 19.69,1.58 v -7.26 h -6.4 c -4.82,0 -7.8,1.77 -7.8,5.3 0,3.53 2.13,5.37 5.61,5.37 1.77,0 4.94,-1.04 8.59,-3.41 z"
       id="path80" />
    <path
       class="cls-1"
       d="m 1363.79,518.98 c -0.24,-1.53 -0.31,-2.87 -0.31,-4.45 v -14.39 h -4.57 v -4.21 h 4.82 l 0.67,-8.05 h 4.76 v 8.05 h 7.25 v 4.21 h -7.25 v 14.26 c 0,1.4 0,2.68 0.24,3.78 0.49,2.87 2.26,3.72 4.87,3.72 0.98,0 1.95,-0.24 2.93,-0.55 l 1.28,4.15 c -1.58,0.49 -3.17,0.73 -4.51,0.73 -5.67,0 -9.39,-2.62 -10.18,-7.25 z"
       id="path81" />
    <path
       class="cls-1"
       d="m 1385.01,516.29 c -0.55,-3.96 -0.55,-7.13 0,-11.09 0.85,-5.97 6.09,-9.94 13.53,-9.94 7.44,0 12.68,3.96 13.59,9.94 0.49,3.96 0.49,7.13 0,11.09 -0.85,5.91 -6.16,9.94 -13.59,9.94 -7.43,0 -12.74,-4.02 -13.53,-9.94 z m 21.52,-1.09 c 0.37,-2.68 0.37,-6.22 0,-8.9 -0.49,-3.84 -3.72,-6.58 -7.99,-6.58 -4.27,0 -7.5,2.74 -7.99,6.58 -0.31,2.68 -0.31,6.22 0,8.9 0.49,3.84 3.72,6.64 7.99,6.64 4.27,0 7.5,-2.8 7.99,-6.64 z"
       id="path82" />
    <path
       class="cls-1"
       d="m 1422.94,495.93 h 4.39 l 0.73,3.96 c 3.41,-2.74 7.01,-4.63 10.42,-4.63 3.9,0 6.64,1.89 8.05,4.51 3.17,-2.62 6.71,-4.51 10.24,-4.51 6.22,0 9.88,4.39 9.88,10.79 v 19.51 h -5.67 v -19.39 c 0,-3.66 -1.34,-6.46 -5.18,-6.46 -2.31,0 -4.75,1.28 -7.86,3.72 0.24,0.79 0.36,1.71 0.36,2.68 v 19.45 h -5.67 v -19.39 c 0,-3.53 -1.28,-6.46 -5.12,-6.46 -2.62,0 -5.42,1.77 -8.9,4.69 v 21.15 h -5.67 v -29.63 z"
       id="path83" />
    <path
       class="cls-1"
       d="m 1476.71,516.29 c -0.55,-3.96 -0.55,-7.13 0,-11.09 0.85,-5.97 6.09,-9.94 13.53,-9.94 7.44,0 12.68,3.96 13.59,9.94 0.49,3.96 0.49,7.13 0,11.09 -0.85,5.91 -6.16,9.94 -13.59,9.94 -7.43,0 -12.74,-4.02 -13.53,-9.94 z m 21.52,-1.09 c 0.37,-2.68 0.37,-6.22 0,-8.9 -0.49,-3.84 -3.72,-6.58 -7.99,-6.58 -4.27,0 -7.5,2.74 -7.99,6.58 -0.31,2.68 -0.31,6.22 0,8.9 0.49,3.84 3.72,6.64 7.99,6.64 4.27,0 7.5,-2.8 7.99,-6.64 z m -5.79,-32.07 h 5.18 l -5.42,7.99 h -3.6 z"
       id="path84" />
    <path
       class="cls-1"
       d="m 1515.24,481.79 h 5.67 v 43.77 h -5.67 z"
       id="path85" />
    <path
       class="cls-1"
       d="m 1532.07,516.29 c -0.55,-3.96 -0.55,-7.13 0,-11.09 0.85,-5.97 6.09,-9.94 13.53,-9.94 7.44,0 12.68,3.96 13.59,9.94 0.49,3.96 0.49,7.13 0,11.09 -0.85,5.91 -6.16,9.94 -13.59,9.94 -7.43,0 -12.74,-4.02 -13.53,-9.94 z m 21.52,-1.09 c 0.37,-2.68 0.37,-6.22 0,-8.9 -0.49,-3.84 -3.72,-6.58 -7.99,-6.58 -4.27,0 -7.5,2.74 -7.99,6.58 -0.31,2.68 -0.31,6.22 0,8.9 0.49,3.84 3.72,6.64 7.99,6.64 4.27,0 7.5,-2.8 7.99,-6.64 z"
       id="path86" />
    <path
       class="cls-1"
       d="m 1569.68,538 1.65,-3.84 c 4.45,2.01 7.56,2.62 10.18,2.62 3.78,0 6.59,-2.93 7.13,-6.58 0.24,-1.46 0.37,-2.93 0.37,-4.63 v -2.5 c -2.99,2.26 -6.34,3.17 -8.72,3.17 -6.77,0 -10.97,-4.57 -11.7,-10.12 -0.55,-3.6 -0.55,-7.13 0,-10.73 0.73,-5.55 5.49,-10.12 12.25,-10.12 3.29,0 7.8,0.43 13.84,2.74 v 27.55 c 0,1.83 -0.18,3.66 -0.49,5.55 -0.91,5.42 -5.85,10.06 -12.56,10.06 -3.05,0 -7.07,-0.79 -11.95,-3.17 z m 19.33,-19.15 v -17.68 c -3.47,-1.22 -5.61,-1.46 -7.68,-1.46 -3.72,0 -6.71,2.68 -7.25,6.52 -0.37,2.68 -0.37,6.28 0,9.02 0.55,3.84 3.53,6.52 7.13,6.52 2.01,0 4.45,-0.67 7.8,-2.93 z"
       id="path87" />
    <path
       class="cls-1"
       d="m 1605.17,516.29 c -0.55,-3.96 -0.55,-7.13 0,-11.09 0.85,-5.97 6.09,-9.94 13.53,-9.94 7.44,0 12.68,3.96 13.59,9.94 0.49,3.96 0.49,7.13 0,11.09 -0.85,5.91 -6.16,9.94 -13.59,9.94 -7.43,0 -12.74,-4.02 -13.53,-9.94 z m 21.52,-1.09 c 0.37,-2.68 0.37,-6.22 0,-8.9 -0.49,-3.84 -3.72,-6.58 -7.99,-6.58 -4.27,0 -7.5,2.74 -7.99,6.58 -0.31,2.68 -0.31,6.22 0,8.9 0.49,3.84 3.72,6.64 7.99,6.64 4.27,0 7.5,-2.8 7.99,-6.64 z"
       id="path88" />
    <path
       class="cls-1"
       d="m 1640.9,522.69 1.58,-3.9 c 4.21,2.32 7.44,3.35 11.34,3.35 2.74,0 5.49,-1.83 5.49,-5 0,-2.62 -2.32,-3.84 -7.01,-4.69 -5.43,-0.91 -10.42,-3.41 -10.42,-8.9 0,-5.49 4.45,-8.29 10.55,-8.29 5.3,0 9.63,2.74 11.28,3.96 l -2.2,3.47 c -2.86,-2.01 -5.85,-3.29 -8.78,-3.29 -2.93,0 -5.3,1.71 -5.3,4.51 0,2.62 2.19,3.84 5.73,4.57 6.22,1.4 11.7,2.93 11.7,8.6 0,5.67 -4.63,9.08 -10.73,9.08 -5.24,0 -8.84,-1.1 -13.23,-3.47 z"
       id="path89" />
  </g>
</svg>
