<?xml version="1.0" encoding="UTF-8"?>
<svg id="Camada_1" data-name="Camada 1" xmlns="http://www.w3.org/2000/svg" viewBox="0 0 1920 800">
  <defs>
    <style>
      .cls-1 {
        fill: #f4f4f4;
      }
    </style>
  </defs>
  <g>
    <path class="cls-1" d="M705.75,277.69h55.15c39.2,0,65.4,22.56,69.96,51.05,3.19,18.91,3.19,37.14,0,56.06-4.56,28.48-30.54,50.59-69.28,50.59h-55.83v-157.69ZM759.99,408.95c20.05,0,32.59-10.94,36.46-28.03,2.51-11.39,2.51-36.69,0-48.31-3.87-17.32-16.41-28.48-37.37-28.48h-19.14v104.82h20.05Z"/>
    <path class="cls-1" d="M860.26,286.58c0-10.03,8.2-18.68,18.91-18.68s18.91,8.66,18.91,18.68c0,10.71-8.43,19.37-18.91,19.37s-18.91-8.66-18.91-19.37ZM862.09,322.58h34.18v112.8h-34.18v-112.8Z"/>
    <path class="cls-1" d="M919.06,403.25c0-24.84,20.97-35.78,51.5-35.78h19.14v-7.06c0-9.11-4.1-16.41-18-16.41-11.39,0-24.38,6.15-32.81,11.39l-11.39-20.05c8.66-5.47,29.85-15.04,51.04-15.04,28.94,0,45.35,16.86,45.35,41.93v73.15h-28.49l-4.56-11.85c-6.61,7.07-18,14.13-31.45,14.13-24.38,0-40.33-13.44-40.33-34.41ZM989.7,405.53v-19.14h-15.72c-14.13,0-21.65,5.24-21.65,14.36,0,8.43,5.47,13.22,14.13,13.22,6.84,0,15.27-3.42,23.24-8.43Z"/>
    <path class="cls-1" d="M1061.27,407.36c-.91-5.7-1.14-11.39-1.14-17.32v-42.61h-16.41v-24.84h18l3.88-29.85h28.71v29.85h25.75v24.84h-25.75v41.47c0,5.01,0,9.57.91,13.67,1.6,7.75,5.7,9.57,13.44,9.57,3.42,0,7.29-1.14,10.25-2.51l8.21,24.61c-6.61,2.05-14.58,3.42-20.97,3.42-26.66,0-41.47-11.39-44.89-30.31Z"/>
    <path class="cls-1" d="M1142.4,400.07c-2.28-15.04-2.28-27.12,0-42.16,3.19-22.11,24.38-37.6,54.92-37.6s51.73,15.5,55.15,37.6c2.28,15.04,2.28,27.12,0,42.16-3.19,22.33-24.38,37.6-55.15,37.6s-51.73-15.27-54.92-37.6ZM1218.74,392.77c1.14-9.34,1.14-18.23,0-27.57-1.37-10.94-10.03-18.46-21.42-18.46s-19.83,7.52-21.19,18.46c-1.14,9.34-1.14,18.23,0,27.57,1.37,11.17,10.03,18.46,21.19,18.46s20.05-7.29,21.42-18.46Z"/>
    <path class="cls-1" d="M1279.6,322.58h25.75l4.33,13.22c11.85-9.57,25.52-15.5,38.28-15.5,14.81,0,26.21,7.52,32.13,17.09,10.94-9.8,25.07-17.09,39.88-17.09,24.16,0,41.47,16.18,41.47,43.98v71.1h-34.18v-69.96c0-10.94-3.42-18.69-14.13-18.69-8.43,0-16.18,4.56-25.07,12.08.68,2.05.68,4.1.68,6.38v70.19h-34.18v-69.96c0-9.8-2.73-18.69-14.13-18.69-9.34,0-18.23,6.61-26.66,14.81v73.83h-34.18v-112.8Z"/>
    <path class="cls-1" d="M1492.46,277.69h63.12c28.48,0,49.22,15.95,49.22,41.93,0,14.36-8.21,29.62-21.19,33.04,16.18,3.88,28.71,18.46,28.71,36.69,0,25.52-21.88,46.03-51.04,46.03h-68.82v-157.69ZM1554.89,342.64c10.48,0,19.37-9.11,19.37-20.05s-8.66-20.28-19.37-20.28h-27.57v40.33h27.57ZM1556.26,410.55c12.76,0,22.56-9.8,22.33-22.56-.23-11.39-9.11-22.33-23.01-22.33h-28.26v44.89h28.94Z"/>
    <path class="cls-1" d="M1636.72,322.58h29.63l4.56,13.22c13.22-10.25,26.43-15.5,37.6-15.5v28.71c-12.99,0-25.98,3.87-37.6,12.31v74.06h-34.18v-112.8Z"/>
  </g>
  <g>
    <path class="cls-1" d="M381.62,445.39c.41.92,1.81.54,1.68-.46-.71-5.85-2.14-11.62-3.18-17.43-1.34-7.52-2.01-15.42.34-22.69.76-2.34,2.16-4.86,4.58-5.32,2.64-.5,4.97,1.68,6.69,3.73,11.73,13.96,19.67,30.78,31.65,44.53.98,1.12,2.24,2.32,3.71,2.1,1.64-.25,2.5-2.26,2.15-3.87-.36-1.61-1.54-2.9-2.65-4.13-18.12-20.16-27.43-47.89-25.12-74.82,1.05-12.25,4.36-24.17,8.01-35.94.76-2.44-2.22-4.3-4.1-2.57-4.04,3.71-6.95,8.79-8.93,13.97-2.88,7.51-4.26,15.53-7.26,23-1.4,3.5-3.65,7.24-7.38,7.93-3.08.57-6.08-1.18-8.58-3.04-6.72-4.99-12.42-11.34-16.65-18.54-1.4-2.39-2.85-5.03-4.7-7.07-1.73-1.91-4.88-.3-4.32,2.21,3.35,15.08,26.14,80.84,34.04,98.44Z"/>
    <path class="cls-1" d="M367.47,354.94c.77,2.51,1.98,4.82,4.13,6.59,1.79,1.47,4.16,2.19,6.42,1.69,3.85-.84,5-4.19,5.41-7.33.43-3.31.17-6.83-1.54-9.71-1.71-2.87-5.1-4.91-8.4-4.33-.73.13-1.5.53-2.25,1.07-3.76,2.7-5.12,7.61-3.76,12.02Z"/>
    <path class="cls-1" d="M580.49,392.97c1.25-4.83,2.13-9.84,1.5-14.79-.17-1.34-1.83-5.5-4.31,1.17-2.71,14.2-11.33,42.83-39.92,63.04-3.4,2.41-7.75,3.2-11.92,3.67-2.45.28-5.34.04-6.76-1.96-1.55-2.19-.51-5.19.67-7.6,7.98-16.37,20.14-30.48,27.82-46.99.62-1.34,1.2-2.98.39-4.23-.9-1.39-3.1-1.34-4.43-.35-1.33.99-2.03,2.59-2.7,4.1-11.04,24.71-32.63,44.54-58.28,53.54-11.67,4.09-23.96,5.99-36.26,7.53-2.55.32-3.03,3.78-.67,4.77,5.06,2.14,10.92,2.67,16.49,2.34,8.07-.48,16-2.53,24.08-2.88,3.78-.17,8.15.33,10.31,3.42,1.79,2.55,1.42,5.99.74,9.03-1.81,8.14-5.29,15.92-10.16,22.71-1.61,2.25-3.44,4.65-4.55,7.16-1.04,2.35,1.73,4.54,3.8,3,.06-.04.11-.08.17-.13,6.86-5.14,13.19-11.06,19.54-16.79,9.35-8.44,19.29-18.85,29.36-26.43,33.86-25.48,42.76-54.31,45.11-63.34Z"/>
    <path class="cls-1" d="M482.37,480.67c3.3-2.21,6.34-4.81,7.43-8.78.61-2.22.29-4.67-1.09-6.52-2.35-3.15-5.9-2.81-8.95-1.88-3.21.97-6.34,2.66-8.27,5.39-1.93,2.73-2.41,6.64-.51,9.39,1.9,2.75,6.38,3.57,8.73,1.18h0c.14,1.27,1.59,1.92,2.66,1.21Z"/>
    <path class="cls-1" d="M409.69,487.44c12.76,10.97,27.06,19.59,42.51,25.63h0c2.81,1.1,6.01,2.22,9.33,2.22.65,0,1.31-.04,1.97-.14,2.77-.44,4.11-2.69,4.2-4.73.1-2.09-1.04-4.53-3.83-5.24-22.13-5.69-38.09-13.44-50.22-24.37-2.67-2.41-5.38-5.27-8.25-8.3-5.38-5.68-10.95-11.56-17.16-15.43-1.03-.64-2.29-.49-3.14.37-.86.87-.98,2.13-.32,3.14,1.6,2.44,3.7,4.83,5.55,6.93.74.84,1.44,1.64,2.05,2.37,5.22,6.27,11.04,12.18,17.28,17.55Z"/>
    <path class="cls-1" d="M411.56,250.48c-3.04-.05-5.73,1.43-6.94,3.8-1.11,2.17-.79,4.67.89,6.84,1.45,1.88,3.81,2.99,6.17,2.99.48,0,.96-.04,1.43-.14,1.61-.32,3.04-1.14,4.03-2.32,1.66-1.97,1.96-4.98.75-7.32-1.19-2.28-3.67-3.79-6.33-3.85Z"/>
    <path class="cls-1" d="M408.72,307.02c-1.42-.02-2.68.67-3.24,1.77-.52,1.02-.37,2.18.41,3.2.68.88,1.78,1.4,2.89,1.4.22,0,.45-.02.67-.06.75-.15,1.42-.53,1.88-1.09.77-.92.92-2.33.35-3.42-.55-1.07-1.72-1.77-2.96-1.8Z"/>
    <path class="cls-1" d="M278.05,367.14c-1.42-.02-2.68.67-3.24,1.77-.52,1.02-.37,2.18.41,3.2.68.88,1.78,1.4,2.89,1.4.22,0,.45-.02.67-.06.75-.15,1.42-.53,1.88-1.09.77-.92.92-2.33.35-3.42-.55-1.07-1.72-1.77-2.96-1.8Z"/>
    <path class="cls-1" d="M419.61,299.8c-1.42-.02-2.68.67-3.24,1.77-.52,1.02-.37,2.18.41,3.2.68.88,1.78,1.4,2.89,1.4.22,0,.45-.02.67-.06.75-.15,1.42-.53,1.88-1.09.77-.92.92-2.33.35-3.42-.55-1.07-1.72-1.77-2.96-1.8Z"/>
    <path class="cls-1" d="M431.71,293.79c-1.42-.02-2.68.67-3.24,1.77-.52,1.02-.37,2.18.41,3.2.68.88,1.78,1.4,2.89,1.4.22,0,.45-.02.67-.06.75-.15,1.42-.53,1.88-1.09.77-.92.92-2.33.35-3.42-.55-1.07-1.72-1.77-2.96-1.8Z"/>
    <path class="cls-1" d="M490.2,254.09c-3.04-.05-5.73,1.43-6.94,3.8-1.11,2.17-.79,4.67.89,6.84,1.45,1.88,3.81,2.99,6.17,2.99.48,0,.96-.04,1.43-.14,1.61-.32,3.04-1.14,4.03-2.32,1.66-1.97,1.96-4.98.75-7.32-1.19-2.28-3.67-3.79-6.33-3.85Z"/>
    <path class="cls-1" d="M525.55,370.27c-2.17-.04-4.1,1.02-4.96,2.71-.79,1.55-.56,3.34.63,4.89,1.03,1.34,2.72,2.14,4.41,2.14.34,0,.69-.03,1.02-.1,1.15-.23,2.17-.82,2.88-1.66,1.19-1.41,1.4-3.56.53-5.23-.85-1.63-2.62-2.71-4.52-2.75Z"/>
    <path class="cls-1" d="M523.04,392.96c-1.17-.02-2.21.55-2.67,1.46-.43.84-.3,1.8.34,2.63.56.72,1.46,1.15,2.38,1.15.18,0,.37-.02.55-.05.62-.12,1.17-.44,1.55-.89.64-.76.76-1.92.29-2.82-.46-.88-1.41-1.46-2.43-1.48Z"/>
    <path class="cls-1" d="M513.45,353.43c-2.17-.04-4.1,1.02-4.96,2.71-.79,1.55-.56,3.34.63,4.89,1.03,1.34,2.72,2.14,4.41,2.14.34,0,.69-.03,1.02-.1,1.15-.23,2.17-.82,2.88-1.66,1.19-1.41,1.4-3.56.53-5.23-.85-1.63-2.62-2.71-4.52-2.75Z"/>
    <path class="cls-1" d="M443.79,380.26c2.42-.48,4.57-1.72,6.06-3.49,2.49-2.96,2.95-7.48,1.12-11-1.76-3.38-5.59-5.71-9.53-5.79-4.55-.1-8.65,2.14-10.47,5.71-1.66,3.26-1.17,7,1.34,10.27,2.18,2.84,5.74,4.51,9.31,4.51.72,0,1.45-.07,2.16-.21Z"/>
    <path class="cls-1" d="M271.03,255.41c.72,0,1.45-.07,2.16-.21,2.42-.48,4.57-1.72,6.06-3.49,2.49-2.96,2.95-7.48,1.12-11-1.76-3.38-5.59-5.71-9.53-5.79-4.56-.11-8.65,2.14-10.47,5.71-1.66,3.26-1.17,7,1.34,10.27,2.18,2.84,5.74,4.51,9.31,4.51Z"/>
    <path class="cls-1" d="M454.18,431.99c1.3,0,2.6-.12,3.89-.38,4.35-.86,8.21-3.09,10.89-6.27,4.46-5.31,5.29-13.42,2-19.72-3.17-6.08-10.05-10.26-17.13-10.41-8.19-.18-15.58,3.85-18.84,10.25-2.97,5.83-2.09,12.53,2.43,18.4,3.93,5.11,10.34,8.12,16.77,8.12Z"/>
    <path class="cls-1" d="M432.35,265.88c.6,0,1.19-.06,1.78-.17,2-.4,3.78-1.42,5.01-2.89,2.06-2.45,2.44-6.19.93-9.09-1.46-2.79-4.62-4.72-7.87-4.79-3.78-.06-7.14,1.77-8.64,4.72-1.38,2.7-.97,5.79,1.11,8.5,1.8,2.34,4.74,3.72,7.69,3.72Z"/>
    <path class="cls-1" d="M295.35,326.79c-2.3-.03-4.36,1.08-5.27,2.88-.84,1.65-.59,3.54.68,5.18,1.1,1.43,2.89,2.27,4.69,2.27.36,0,.73-.04,1.09-.11,1.22-.24,2.3-.87,3.06-1.76,1.26-1.49,1.49-3.78.57-5.55-.89-1.71-2.82-2.88-4.8-2.92Z"/>
    <path class="cls-1" d="M232.54,320.37c.37,0,.74-.04,1.11-.11,1.24-.25,2.35-.89,3.12-1.8,1.29-1.53,1.53-3.87.58-5.68-.92-1.77-2.84-2.94-4.9-2.98-2.36-.07-4.43,1.11-5.37,2.94-.86,1.69-.62,3.63.68,5.31,1.12,1.45,2.94,2.31,4.77,2.31Z"/>
    <path class="cls-1" d="M577.9,346.82c-2.71-5.68-6.56-10.94-11.12-15.2l-.65-.61c-2.01-1.9-4.52-4.26-7.05-5.25-1.03-.4-1.85-.35-2.44.15-1.06.89-.91,2.87-.6,4.37,1.25,6.01,5.22,12.22,9.34,18.05,3.68,5.22,7.98,9.95,12.79,14.07.44.38.99.58,1.55.58.39,0,.79-.1,1.16-.29.88-.47,1.36-1.4,1.23-2.42-.24-1.55-.57-3.12-.98-4.67-.78-2.99-1.87-5.95-3.22-8.78Z"/>
    <path class="cls-1" d="M532.36,274.75c-3.15-3.39-6.99-6.24-11.12-8.23l-.59-.29c-1.82-.89-4.1-2-6.08-2.14-.81-.06-1.37.16-1.68.63-.55.85,0,2.21.54,3.19,2.19,3.93,6.34,7.42,10.5,10.61,3.72,2.85,7.77,5.23,12.04,7.08.39.17.82.19,1.21.07.27-.09.53-.24.74-.46.51-.52.65-1.28.33-1.96-.51-1.03-1.09-2.06-1.71-3.05-1.2-1.92-2.61-3.76-4.18-5.45Z"/>
    <path class="cls-1" d="M425.89,387.65c0-6.29-1.2-12.68-3.48-18.47l-.32-.83c-1-2.57-2.24-5.77-4.1-7.74-.76-.8-1.52-1.1-2.27-.91-1.34.35-2.06,2.2-2.43,3.69-1.47,5.96-.56,13.27.65,20.28,1.07,6.28,2.92,12.39,5.48,18.17.24.53.65.94,1.15,1.18.35.17.75.25,1.17.23,1-.05,1.84-.69,2.15-1.66.45-1.5.83-3.06,1.13-4.63.58-3.03.88-6.17.88-9.31Z"/>
    <path class="cls-1" d="M469.6,336.99c.03-.21.03-.42,0-.64-.12-.99-.81-1.78-1.81-2.03-1.55-.35-3.13-.63-4.72-.82-3.09-.38-6.25-.47-9.4-.27-6.41.41-12.57,1.97-18.32,4.65l-.81.37c-2.52,1.16-5.65,2.6-7.51,4.57-.75.8-1.01,1.58-.77,2.31.44,1.31,2.35,1.9,3.87,2.17,6.08,1.07,13.36-.31,20.33-1.95,6.24-1.47,12.26-3.7,17.89-6.61.69-.36,1.14-1.01,1.25-1.75Z"/>
    <path class="cls-1" d="M449.24,555.51c.05-.17.07-.35.08-.54,0-.85-.49-1.59-1.31-1.91-1.27-.46-2.59-.87-3.91-1.21-2.57-.66-5.25-1.08-7.94-1.25-5.48-.34-10.88.32-16.04,1.97l-.72.23c-2.26.71-5.08,1.59-6.87,3.07-.73.6-1.03,1.23-.9,1.88.23,1.16,1.78,1.87,3.04,2.26,5.04,1.56,11.36,1.18,17.45.53,5.45-.58,10.79-1.81,15.89-3.68.63-.23,1.08-.73,1.25-1.35Z"/>
    <path class="cls-1" d="M563.76,453.13h0c-1.77,0-3.24.98-4.73,2.08-14.4,10.66-27.76,22.82-39.71,36.13-2.84,3.17-3.56,6.11-1.98,8.05.79.97,1.95,1.45,3.44,1.45,1.12,0,2.42-.27,3.89-.82,10.3-3.87,19.83-10.27,27.56-18.53,2.05-2.19,16.56-21.44,14.2-26.85-.3-.69-1.01-1.5-2.68-1.51Z"/>
    <path class="cls-1" d="M472.94,527.55c7.58-.6,15.02-2.09,22.12-4.45,3.55-1.18,6.99-2.37,10.07-4.03.39-.21.76-.45,1.14-.7,1.09-.74,2.45-.67,3.45.2,1.01.87,1.29,2.26.7,3.45-2.51,5.05-7.72,10.03-11.75,13.01-6.59,4.86-14.7,7.87-22.83,8.48-3.02.23-6.1.16-9.21-.19-12.07-1.35-24.54-6.95-35.33-16.05-1.24-1.05-1.19-2.55-.59-3.57.6-1.02,1.89-1.8,3.43-1.25,12.16,4.39,25.58,6.15,38.8,5.11Z"/>
    <path class="cls-1" d="M482.77,552.56c-.77-.76-2.39.22-3.05.67h0c-7.57,5.2-15.89,9.43-24.74,12.56-15.67,5.55-32.66,7.5-49.15,5.64-.34-.04-.89-.13-1.58-.25l-.13-.02c-2.47-.43-8.24-1.45-9.41-.37-.09.08-.15.18-.13.37.28,2.61,7.37,4.09,12.55,5.18,3.28.69,6.1,1.28,7.38,2.08,2.98,1.85,4.86,5.29,4.58,8.37-.22,2.42-1.79,4.33-4.43,5.37-1.67.66-3.61.81-5.61.45l-1.02-.19c-.92-.17-1.92-.36-2.94-.51-.11-.02-.22-.02-.32-.02-1.13,0-1.62.91-1.74,1.49-.03.17-.28,1.65,1.3,2.04,6.12,1.51,12.5,2.27,18.95,2.27h.02c18.34,0,36.69-6.3,50.37-17.28,2.97-2.38,6.29-5.97,5.67-9.73-2.77.08-5.02,2.37-7.21,4.59l-.88.88c-3.1,3.09-7.82,5.12-10.85,2.27-1.86-1.74-2.21-4.65-.87-7.08,1.89-3.4,5.23-4.78,8.46-6.11.63-.26,1.26-.52,1.88-.79,4.6-2.04,8.78-5.12,12.09-8.89.62-.71,1.6-2.25.83-3Z"/>
    <path class="cls-1" d="M236.13,299.97l.61-.11c6.34-1.19,11.57-5.25,16.62-9.19l.27-.21c25.46-19.82,49.05-34.05,72.11-43.51,27.93-11.46,56.46-16.22,82.51-13.77,2.84.25,10.31-1.29,11.39-4.28.49-1.35-.25-2.7-2.19-4-1.29-.87-3.58-.97-5.6-1.06-.89-.04-1.72-.07-2.33-.17-1.24-.2-2.46-.42-3.69-.64-2.5-.44-5.08-.9-7.67-1.19-14.83-1.65-30.52-.64-46.65,3.02-8.6,1.95-17.29,4.65-25.82,8.04h0c-30.11,11.95-56.71,31.21-78.75,48.47-5.73,4.48-12.14,10.58-10.89,18l.1.61Z"/>
    <path class="cls-1" d="M342.96,255.75c-8.81,6.13-15.98,13.22-16.05,13.29l-.59.59,2.7,1.34.19-.03c.69-.11,17.05-2.71,22.42-6.27,5.33-3.53,15.66-15.47,16.09-15.98l.37-.42-1.51-1.5-.31.06c-.58.11-14.43,2.74-23.3,8.92Z"/>
    <path class="cls-1" d="M325.54,323.76c.43-1.06.88-2.16,1.07-3.35.3-1.89-.09-3.76-.46-5.57-.39-1.9-.76-3.69-.35-5.41.13-.53.52-2.13-.73-2.71-1.16-.54-2.19.66-3.01,1.63-.28.32-.69.81-.86.9-.33.16-1.59.52-2.93.89-3.7,1.04-9.3,2.61-11.38,4.41-.29.25-.57.51-.86.77-1.15,1.04-2.23,2.03-3.69,2.47-.79.23-1.99.59-2.16,1.78-.23,1.62,1.69,2.18,2.51,2.42,1.64.48,5.08,3.01,8.12,5.24,2.97,2.18,5.55,4.07,6.88,4.46h.04s.48.14.48.14c1.73.46,3.52.94,4.38,2.6.11.21.3.43.63.52.26.07.61.08,1.07-.05.39-.11.73-.38.93-.76.25-.46.31-1.04.15-1.56-.14-.46-.39-.83-.62-1.16-.09-.13-.17-.25-.25-.38-.62-1.06-.14-4.01.45-5.74.18-.51.38-1.02.59-1.52Z"/>
    <path class="cls-1" d="M458.7,483.67c.09-.85.18-1.73.06-2.62-.18-1.42-.85-2.68-1.49-3.89-.68-1.28-1.32-2.49-1.38-3.8-.02-.4-.07-1.63-1.09-1.79-.94-.15-1.43.93-1.82,1.79-.13.29-.33.72-.43.82-.2.18-1.03.7-1.91,1.24-2.44,1.51-6.12,3.79-7.23,5.51-.15.24-.3.48-.46.73-.6.98-1.18,1.91-2.13,2.53-.52.33-1.3.83-1.18,1.72.17,1.2,1.67,1.21,2.31,1.22,1.27,0,4.27,1.1,6.91,2.08,2.59.95,4.82,1.77,5.86,1.77h.4c1.33-.04,2.72-.06,3.68.95.12.13.31.24.56.24.2,0,.45-.07.76-.26.26-.16.44-.43.51-.74.08-.38,0-.81-.22-1.15-.2-.3-.45-.51-.68-.7-.09-.07-.18-.14-.26-.22-.67-.63-.94-2.85-.88-4.2.02-.4.06-.81.1-1.21Z"/>
    <path class="cls-1" d="M475.55,369.75c-.68-.52-1.39-1.06-2.21-1.43-1.31-.59-2.74-.69-4.12-.78-1.45-.1-2.82-.19-3.98-.83-.36-.2-1.44-.79-2.11-.01-.62.72.04,1.69.58,2.47.18.26.45.65.48.79.05.27.06,1.24.06,2.27.02,2.85.04,7.16.93,9.01.12.26.25.51.39.77.53,1.03,1.02,2,1.05,3.13.01.61.03,1.54.86,1.9,1.12.49,1.91-.78,2.25-1.31.67-1.08,3.18-3.03,5.4-4.76,2.17-1.69,4.05-3.15,4.59-4.03l.02-.02.19-.32c.67-1.15,1.38-2.33,2.75-2.61.18-.04.37-.13.51-.35.11-.17.18-.42.17-.78,0-.3-.13-.59-.37-.82-.28-.27-.69-.42-1.1-.42-.36,0-.68.12-.96.21-.11.04-.22.07-.33.1-.89.24-2.93-.7-4.06-1.46-.34-.23-.66-.48-.99-.72Z"/>
    <path class="cls-1" d="M486.65,347.52c-1.52-.74-2.79-.84-3.78-.29-2.06,1.14.36,6.64,4.31,14.9,1.11,2.33,2.07,4.35,2.33,5.23,4.27,14.63,3.74,30.27-1.49,44.02l-.14.37c-.63,1.63-1.27,3.32-1.21,5.13.07,2,1.27,4.26,3.46,4.69.25.05.5.07.75.07,2.06,0,3.81-1.68,5.15-3.2,4.35-4.96,8.84-10.08,12.08-15.99,2.56-4.66,5.36-11.82,4.18-19.51-1.07-7-17.2-31.31-25.64-35.42Z"/>
    <path class="cls-1" d="M392.25,310.11c9.66-11.83,22.87-20.32,37.22-23.9l.39-.1c1.71-.42,3.47-.86,4.94-1.94,1.62-1.2,2.79-3.47,1.9-5.5-.96-2.21-3.69-2.78-5.95-3.02-6.58-.72-13.37-1.46-20.11-.74-5.31.57-12.83,2.37-18.5,7.72-5.17,4.87-16.06,31.91-14.64,41.14.26,1.66.9,2.75,1.91,3.25.18.09.37.13.57.13,2.11,0,5.1-4.9,9.28-12.15,1.29-2.24,2.41-4.17,2.99-4.89Z"/>
    <path class="cls-1" d="M358.47,323.59c.37-1.43.59-2.9.81-4.32l.08-.51c1.58-10.14,4.2-18.43,8.01-25.34,4.56-8.26,11.14-14.76,18.52-18.28l.2-.1c1.04-.49,2.21-1.05,3.23-1.77,1.04-.73,1.38-1.98.84-3.12-.54-1.13-1.71-1.67-2.93-1.34-5.54,1.5-10.64,4.35-14.76,8.25-.39.37-.77.74-1.15,1.12l-.1.1c-1.27,1.26-2.47,2.46-3.91,3.29-1.46.84-3.1,1.12-4.4.77-.92-.25-1.64-.82-2.14-1.7-.43-.77-.6-1.72-.47-2.68.29-2.18,1.86-4.15,4.51-5.68,1.34-.77,2.77-1.36,4.29-1.97.73-.3,1.44-.58,2.13-.89.68-.3,1.34-.61,1.99-.94,1.23-.63,1.7-2,1.13-3.25-.43-.94-1.29-1.48-2.24-1.48-.32,0-.64.06-.97.19-9.12,3.61-17.12,9.51-23.14,17.06-7.83,9.82-12.1,22.11-12.02,34.61-.17,2.28-.2,4.48-.1,6.66.04.85.13,1.76.65,2.58.73,1.13,2.24,1.63,3.35,1.07.34-.17,1.39-.71,1.47-3.04.24-7.24,1.12-14.5,2.62-21.59.43-2.05,1.03-4.32,2.65-5.42,1.87-1.27,4.83-.7,6.89-.16.97.25,1.8.63,2.46,1.12,3.28,2.44,2,6.47.75,10.36l-.09.29c-1.6,5.02-2.5,10.23-2.69,15.51-.04,1.2.76,2.15,1.95,2.32,1.2.17,2.24-.52,2.54-1.7Z"/>
    <path class="cls-1" d="M554.29,282.66l38.66,22.84c.88.52,1.87,1.05,2.91,1.05.25,0,.5-.03.75-.1,1.43-.38,2.25-1.07,2.43-2.04.44-2.32-3.22-5.3-4.81-6.47-1.87-1.37-3.58-3.06-5.23-4.68-1.69-1.66-3.44-3.38-5.4-4.83-7.88-5.82-17.07-9.63-26.57-11.02-1.39-.2-3.23,0-4.22.92-.5.47-.74,1.07-.68,1.75.11,1.37,1.49,2.19,2.16,2.58Z"/>
    <path class="cls-1" d="M617.89,322.12c-1.75-4.7-4.71-8.94-8.56-12.27-1.36-1.18-5.98-4.92-8.2-3.74-.88.47-1.21,1.54-1,3.2.36,2.78,2.12,5.74,3.82,8.59,1.12,1.89,2.19,3.67,2.82,5.33,1.93,5.07,3.25,10.34,3.93,15.67l.02.19c.17,1.36.35,2.76,1.12,3.98.66,1.04,1.9,1.86,3.16,1.86.37,0,.74-.07,1.09-.22,1.28-.55,1.86-1.92,2.22-3.05,2.05-6.35,1.9-13.3-.43-19.55Z"/>
    <path class="cls-1" d="M583.93,318.4c-4.9-4.9-10.51-8.64-16.24-10.8-2.02-.76-8.71-3.06-9.78-.49-.42,1.01.06,2.51,1.44,4.43,2.31,3.23,5.97,5.99,9.5,8.66,2.33,1.76,4.54,3.42,6.28,5.15,5.32,5.27,10.26,11.09,14.69,17.31l.15.22c1.13,1.58,2.29,3.22,3.83,4.33,1.32.95,2.98,1.34,4.08.71.32-.18.59-.45.78-.82.7-1.32.22-3.29-.27-4.86-2.8-8.84-7.94-17.3-14.45-23.83Z"/>
    <path class="cls-1" d="M234.18,337.75c-9.25-8.1-19.87-14.88-22.26-12.18-2.39,2.7,5.72,12.31,14.97,20.4,7.84,6.86,16.66,12.78,20.63,12.78.71,0,1.27-.19,1.63-.6,2.39-2.7-5.72-12.31-14.97-20.4Z"/>
    <path class="cls-1" d="M317.77,224.08c1.3,0,2.93-.19,4.89-.57,4.61-.9,10.46-2.77,16.46-5.25,6-2.48,11.45-5.29,15.35-7.91,4.25-2.85,6.07-5.08,5.43-6.62-.64-1.54-3.52-1.82-8.55-.84-4.61.9-10.46,2.77-16.46,5.25-6,2.48-11.45,5.29-15.35,7.91-4.25,2.85-6.07,5.08-5.43,6.62.39.94,1.62,1.41,3.66,1.41Z"/>
    <path class="cls-1" d="M455.73,249.33l.63.59.34-.8c2.33-5.44,7.07-8.68,14.47-9.89l.84-.14-.41-.74c-6-10.97-13.19-21.32-21.39-30.78l-.54-.62-.44.69c-3.45,5.46-8.34,8.82-14.53,9.98l-.74.14.29.69c5.07,11.86,12.29,22.25,21.46,30.87Z"/>
    <path class="cls-1" d="M591.72,409.88c3.07-9.02,4.5-18.8,2.51-28.11-.34-1.58-.77-3.19-.54-4.78.24-1.6,1.36-3.2,2.98-3.39.99-.12,1.95.3,2.86.71l16.58,7.46c.97.44,1.83,1.13,2.32,2.07,1.36,2.58-.99,4.59-3.26,5.08-1.82.4-3.74.17-5.57.57-5.02,1.1-7.74,6.38-9.78,11.07-3.89,8.95-7.77,17.9-11.66,26.85-1.87,4.31-4.08,9.64-7.55,13.37-1.57,1.69-4.35-.11-3.42-2.21,1.34-3.01,3.55-5.76,5.18-8.48,3.79-6.3,6.97-13.25,9.33-20.19Z"/>
    <path class="cls-1" d="M354.87,407.65c-2.68-4.97-5.36-9.93-8.03-14.9-1.4-2.6-2.83-5.73-1.52-8.38.47-.96,1.27-1.74,1.75-2.71.48-.96.52-2.3-.33-2.95-.94-.72-2.29-.2-3.34.34-2.87,1.46-9.88,4.3-12.75,5.76-.51.26-1.05.54-1.35,1.03-.49.79-.17,1.88.48,2.56.77.82,3.74-1.15,8.94.78.42.16,1.03.54,1.36.83,5.52,4.95,10.84,13,13.95,21.2.78,2.05,1.29,4.5,2.59,6.34.54.77,1.8.39,1.76-.55-.12-3.27-2.02-6.65-3.49-9.36Z"/>
    <path class="cls-1" d="M395.25,438.6c.32.68.65,1.38,1.21,1.88s1.42.75,2.09.4c.88-.47,1-1.67.92-2.66-.21-2.65-2.42-12.1-6.41-11.7-4.3.43,1.38,10.35,2.19,12.08Z"/>
    <path class="cls-1" d="M402.61,444.76c-.52-.54-1.06-1.1-1.76-1.39s-1.59-.26-2.11.29c-.69.73-.4,1.9,0,2.82,1.05,2.44,6.21,10.68,9.86,9.02,3.93-1.78-4.66-9.36-5.99-10.74Z"/>
    <path class="cls-1" d="M424.89,468.67c-.71-.26-1.44-.52-2.2-.48s-1.54.46-1.76,1.18c-.29.95.48,1.89,1.24,2.54,2.02,1.73,10.3,6.89,12.85,3.8,2.74-3.32-8.32-6.38-10.12-7.04Z"/>
    <path class="cls-1" d="M413.5,457.99c-.52-.54-1.06-1.1-1.76-1.39s-1.59-.26-2.11.29c-.69.73-.4,1.9,0,2.82,1.05,2.44,6.21,10.68,9.86,9.02,3.93-1.78-4.66-9.36-5.99-10.74Z"/>
    <path class="cls-1" d="M271.26,353.37c-4.2-.93-7.92-3.44-10.95-6.48-3.03-3.04-5.44-6.63-7.83-10.19-.66-.99-1.36-2.15-1.01-3.29.37-1.21,1.8-1.8,3.07-1.74s2.45.62,3.67.98c5.38,1.58,11.27-.65,16.73.63,8.61,2.02,13.21,11.83,21.42,15.1,5.82,2.31,12.86,1.05,18.15,4.4,2.74,1.73,4.64,4.48,6.45,7.16,1.85,2.72,3.7,5.45,5.55,8.17.51.76,1.05,1.63.84,2.52-.34,1.45-2.26,1.75-3.76,1.74-3.46-.02-6.92-.05-10.38-.07-3.79-.03-7.69-.08-11.16-1.6-4.54-1.99-7.56-6.11-10.75-9.69-1.62-1.81-3.35-3.47-5.25-4.99-1.7-1.37-3.48-1.67-5.65-1.85-3.04-.26-6.14-.11-9.14-.77Z"/>
    <path class="cls-1" d="M279.6,309.45c-2.51,2.38-5.86,3.74-9.27,4.39s-6.9.66-10.37.66c-.96,0-2.06-.06-2.67-.8-.65-.79-.41-2.01.2-2.82.61-.81,1.51-1.35,2.3-2.01,3.47-2.87,4.6-7.8,7.9-10.86,5.21-4.83,13.89-3.5,19.76-7.51,4.16-2.84,6.46-8.09,11.08-10.12,2.39-1.05,5.1-1.08,7.71-1.09,2.66-.01,5.33-.03,7.99-.04.74,0,1.57.03,2.07.57.82.88.17,2.29-.51,3.28-1.56,2.29-3.13,4.58-4.69,6.88-1.71,2.51-3.49,5.09-6.07,6.71-3.37,2.13-7.5,2.3-11.34,2.83-1.94.27-3.84.68-5.71,1.26-1.69.52-2.68,1.57-3.78,2.93-1.54,1.91-2.82,4.04-4.61,5.74Z"/>
    <path class="cls-1" d="M547,338.72c-1.48-3.45-8.1-17.62-10.13-21.23-.02-.04-.05-.08-.07-.12,2.34-5.07,3.72-5.58,4.89-10.57-9.11-9.44-24.25-10.25-42.18-15.99h0c-3.3-1.43-7.23-3.67-13.69-8.35-4.44-3.22-23.39-16.45-28.29-18.25-.04-.01-.08-.03-.12-.04-1.45-.52-2.86,1.6-1.94,2.93.99,1.43,2.41,2.61,3.69,3.76,3.93,3.52,20.87,19.61,23.16,24.96.87,2.02,1.6,4.41.78,6.65-.98,2.7-3.75,3.99-6.21,4.66-5.16,1.42-40.17-2.56-43.98,1.57-1.14,1.23-1.64,4.8,2.13,4.46,7.49-.67,33.4,1.43,41.11,3.24,5.55,1.3,9.95,2.02,13.73,2.85,0,.02-.01.04-.02.06,14.44,3.25,16.33,13.82,25.12,25.45,1.5-1.21,2.91-2.43,4.26-3.67.8.89,1.56,1.81,2.26,2.78,1.63,2.24,7.98,11.27,9.32,13.74,1.86,3.43,3.91,6.82,5.92,10.14.87,1.44,2.43,5.23,4.61,4.73,3.79-.87-2.06-11.62-2.82-13.39-1.48-3.45-8.1-17.62-10.13-21.23-.73-1.29-1.51-2.57-2.34-3.82,2.2-2.57,4.14-5.18,5.84-7.81,2.54,3.6,6.37,9.16,7.38,11.02,1.86,3.43,3.91,6.82,5.92,10.14.87,1.44,2.43,5.23,4.61,4.73,3.79-.87-2.06-11.62-2.82-13.39Z"/>
    <path class="cls-1" d="M475.47,293.75c1.98,2.39,2.26,6.45-.25,8.28-1.34.98-3.13,1.11-4.79.98-2.53-.18-5.12-.91-7.01-2.59-1.89-1.69-2.89-4.49-1.96-6.84.93-2.35,3.75-4.7,6.84-3.72,2.77.59,4.98,2.52,7.16,3.89Z"/>
    <path class="cls-1" d="M566.4,366.89c-.52-2.36-1.28-4.65-2.22-6.87-.81-1.9-3.02-2.78-4.92-1.96h0c-1.81.78-2.7,2.83-2.02,4.67.2.54.39,1.09.57,1.65,3.32,10.39,1.99,21.8-1.63,32.09-3.04,8.65-7.62,16.66-12.41,24.51-1.36,2.23,1.36,4.79,3.47,3.23.13-.1.26-.2.39-.31,1.81-1.51,3.02-3.6,4.2-5.64,4.54-7.91,9.11-15.88,12.12-24.48,3.01-8.6,4.41-17.98,2.45-26.87Z"/>
  </g>
  <g>
    <path class="cls-1" d="M708.14,484.05h16.15c7.25,0,12.13,5.91,12.13,12.62,0,5.3-3.05,10.06-7.86,11.7l7.93,17.19h-5.37l-7.5-16.21h-9.81v16.21h-5.67v-41.51ZM723.02,504.9c4.2,0,7.68-3.47,7.68-8.35s-3.47-8.05-7.68-8.05h-9.2v16.4h9.2Z"/>
    <path class="cls-1" d="M743.5,516.29c-.49-3.96-.55-7.13,0-11.09.79-5.97,5.85-9.94,13.04-9.94s12.32,3.96,13.17,9.94c.3,2.62.43,4.94.3,7.19h-21.34c0,1.58.12,2.93.43,3.96.73,3.41,3.84,5.73,7.99,5.73s7.19-1.28,9.57-3.05l1.77,3.9c-3.23,2.07-6.58,3.29-11.58,3.29-7.44,0-12.62-4.02-13.35-9.94ZM764.53,508.92c0-1.04-.12-1.95-.18-2.93-.49-3.84-3.53-6.58-7.74-6.58s-7.31,2.74-7.8,6.58c-.06.98-.12,2.01-.12,2.93h15.85Z"/>
    <path class="cls-1" d="M779.72,516.11c-.55-3.6-.49-7.13,0-10.73.73-5.55,5.18-10.12,11.52-10.12,2.62,0,5.73,1.04,8.9,3.17v-16.64h5.67v43.77h-5.24l-.43-2.26c-3.23,2.13-6.7,2.93-9.02,2.93-6.34,0-10.61-4.57-11.4-10.12ZM800.14,519.1v-16.52c-3.47-2.19-5.85-2.86-7.86-2.86-3.72,0-6.46,2.68-7.01,6.4-.43,2.74-.43,6.58,0,9.2.61,3.84,3.29,6.46,7.01,6.46,2.01,0,4.08-.67,7.86-2.68Z"/>
    <path class="cls-1" d="M816.36,516.29c-.49-3.96-.55-7.13,0-11.09.79-5.97,5.85-9.94,13.04-9.94s12.32,3.96,13.17,9.94c.3,2.62.43,4.94.3,7.19h-21.34c0,1.58.12,2.93.43,3.96.73,3.41,3.84,5.73,7.99,5.73s7.19-1.28,9.57-3.05l1.77,3.9c-3.23,2.07-6.58,3.29-11.58,3.29-7.44,0-12.62-4.02-13.35-9.94ZM837.39,508.92c0-1.04-.12-1.95-.18-2.93-.49-3.84-3.53-6.58-7.74-6.58s-7.31,2.74-7.8,6.58c-.06.98-.12,2.01-.12,2.93h15.85Z"/>
    <path class="cls-1" d="M875.07,484.05h13.72c6.7,0,11.89,4.39,11.89,10.73,0,4.51-3.05,8.11-5.61,8.84,4.69,1.22,8.23,5.06,8.23,10.24,0,6.64-5.49,11.7-12.92,11.7h-15.3v-41.51ZM888.61,502.09c3.66,0,6.89-2.99,6.89-6.95s-3.11-6.83-6.89-6.83h-7.8v13.78h7.8ZM889.71,521.35c4.75,0,7.99-3.29,7.99-7.68,0-3.78-2.8-7.62-8.47-7.62h-8.41v15.3h8.9Z"/>
    <path class="cls-1" d="M912.81,495.93h4.94l.73,3.96c3.6-2.8,6.95-4.63,10.12-4.63v4.94c-3.29,0-6.46,1.34-10.12,4.2v21.15h-5.67v-29.63Z"/>
    <path class="cls-1" d="M933.85,517.15c0-6.04,5-9.08,12.86-9.08h6.83v-2.68c0-3.47-2.07-6.04-6.22-6.04-3.42,0-7.01,1.83-9.27,3.23l-2.07-3.53c2.13-1.28,7.19-3.78,12.31-3.78,6.46,0,10.85,4.08,10.85,10.42v19.87h-4.75l-.73-3.47c-2.26,1.77-6.16,4.15-9.69,4.15-6.04,0-10.12-3.66-10.12-9.08ZM953.54,518.73v-7.26h-6.4c-4.82,0-7.8,1.77-7.8,5.3s2.13,5.37,5.61,5.37c1.77,0,4.94-1.04,8.59-3.41Z"/>
    <path class="cls-1" d="M968.6,522.69l1.58-3.9c4.21,2.32,7.44,3.35,11.34,3.35,2.74,0,5.49-1.83,5.49-5,0-2.62-2.32-3.84-7.01-4.69-5.43-.91-10.42-3.41-10.42-8.9s4.45-8.29,10.55-8.29c5.3,0,9.63,2.74,11.28,3.96l-2.2,3.47c-2.86-2.01-5.85-3.29-8.78-3.29s-5.3,1.71-5.3,4.51c0,2.62,2.19,3.84,5.73,4.57,6.22,1.4,11.7,2.93,11.7,8.6s-4.63,9.08-10.73,9.08c-5.24,0-8.84-1.1-13.23-3.47Z"/>
    <path class="cls-1" d="M1002.5,487.4c0-1.95,1.59-3.53,3.6-3.53s3.6,1.58,3.6,3.53c0,2.07-1.58,3.72-3.6,3.72s-3.6-1.65-3.6-3.72ZM1003.29,495.93h5.67v29.63h-5.67v-29.63Z"/>
    <path class="cls-1" d="M1022.68,481.79h5.67v43.77h-5.67v-43.77Z"/>
    <path class="cls-1" d="M1039.51,516.29c-.49-3.96-.55-7.13,0-11.09.79-5.97,5.85-9.94,13.04-9.94s12.32,3.96,13.17,9.94c.3,2.62.43,4.94.3,7.19h-21.34c0,1.58.12,2.93.43,3.96.73,3.41,3.84,5.73,7.99,5.73s7.19-1.28,9.57-3.05l1.77,3.9c-3.23,2.07-6.58,3.29-11.58,3.29-7.44,0-12.62-4.02-13.35-9.94ZM1060.53,508.92c0-1.04-.12-1.95-.18-2.93-.49-3.84-3.53-6.58-7.74-6.58s-7.31,2.74-7.8,6.58c-.06.98-.12,2.01-.12,2.93h15.85Z"/>
    <path class="cls-1" d="M1076.39,487.4c0-1.95,1.59-3.53,3.6-3.53s3.6,1.58,3.6,3.53c0,2.07-1.58,3.72-3.6,3.72s-3.6-1.65-3.6-3.72ZM1077.18,495.93h5.67v29.63h-5.67v-29.63Z"/>
    <path class="cls-1" d="M1095.96,495.93h4.94l.73,3.96c3.6-2.8,6.95-4.63,10.12-4.63v4.94c-3.29,0-6.46,1.34-10.12,4.2v21.15h-5.67v-29.63Z"/>
    <path class="cls-1" d="M1117,517.15c0-6.04,5-9.08,12.86-9.08h6.83v-2.68c0-3.47-2.07-6.04-6.22-6.04-3.42,0-7.01,1.83-9.27,3.23l-2.07-3.53c2.13-1.28,7.19-3.78,12.31-3.78,6.46,0,10.85,4.08,10.85,10.42v19.87h-4.75l-.73-3.47c-2.26,1.77-6.16,4.15-9.69,4.15-6.04,0-10.12-3.66-10.12-9.08ZM1136.69,518.73v-7.26h-6.4c-4.82,0-7.8,1.77-7.8,5.3s2.13,5.37,5.61,5.37c1.77,0,4.94-1.04,8.59-3.41Z"/>
    <path class="cls-1" d="M1174.12,516.11c-.55-3.6-.49-7.13,0-10.73.73-5.55,5.18-10.12,11.52-10.12,2.62,0,5.73,1.04,8.9,3.17v-16.64h5.67v43.77h-5.24l-.43-2.26c-3.23,2.13-6.7,2.93-9.02,2.93-6.34,0-10.61-4.57-11.4-10.12ZM1194.54,519.1v-16.52c-3.47-2.19-5.85-2.86-7.86-2.86-3.72,0-6.46,2.68-7.01,6.4-.43,2.74-.43,6.58,0,9.2.61,3.84,3.29,6.46,7.01,6.46,2.01,0,4.08-.67,7.86-2.68Z"/>
    <path class="cls-1" d="M1210.77,516.29c-.49-3.96-.55-7.13,0-11.09.79-5.97,5.85-9.94,13.04-9.94s12.32,3.96,13.17,9.94c.3,2.62.43,4.94.3,7.19h-21.34c0,1.58.12,2.93.43,3.96.73,3.41,3.84,5.73,7.99,5.73s7.19-1.28,9.57-3.05l1.77,3.9c-3.23,2.07-6.58,3.29-11.58,3.29-7.44,0-12.62-4.02-13.35-9.94ZM1231.8,508.92c0-1.04-.12-1.95-.18-2.93-.49-3.84-3.53-6.58-7.74-6.58s-7.31,2.74-7.8,6.58c-.06.98-.12,2.01-.12,2.93h15.85Z"/>
    <path class="cls-1" d="M1269.48,484.05h11.34c10.06,0,16.88,6.16,17.92,13.65.67,5,.67,9.57,0,14.57-1.04,7.5-7.62,13.29-17.37,13.29h-11.89v-41.51ZM1281.12,521.11c6.34,0,10.97-3.66,11.89-9.08.67-3.9.67-10,0-14.14-.91-5.37-5.67-9.39-12.37-9.39h-5.49v32.61h5.97Z"/>
    <path class="cls-1" d="M1309.23,487.4c0-1.95,1.59-3.53,3.6-3.53s3.6,1.58,3.6,3.53c0,2.07-1.58,3.72-3.6,3.72s-3.6-1.65-3.6-3.72ZM1310.02,495.93h5.67v29.63h-5.67v-29.63Z"/>
    <path class="cls-1" d="M1325.14,517.15c0-6.04,5-9.08,12.86-9.08h6.83v-2.68c0-3.47-2.07-6.04-6.22-6.04-3.42,0-7.01,1.83-9.27,3.23l-2.07-3.53c2.13-1.28,7.19-3.78,12.31-3.78,6.46,0,10.85,4.08,10.85,10.42v19.87h-4.75l-.73-3.47c-2.26,1.77-6.16,4.15-9.69,4.15-6.04,0-10.12-3.66-10.12-9.08ZM1344.83,518.73v-7.26h-6.4c-4.82,0-7.8,1.77-7.8,5.3s2.13,5.37,5.61,5.37c1.77,0,4.94-1.04,8.59-3.41Z"/>
    <path class="cls-1" d="M1363.79,518.98c-.24-1.53-.31-2.87-.31-4.45v-14.39h-4.57v-4.21h4.82l.67-8.05h4.76v8.05h7.25v4.21h-7.25v14.26c0,1.4,0,2.68.24,3.78.49,2.87,2.26,3.72,4.87,3.72.98,0,1.95-.24,2.93-.55l1.28,4.15c-1.58.49-3.17.73-4.51.73-5.67,0-9.39-2.62-10.18-7.25Z"/>
    <path class="cls-1" d="M1385.01,516.29c-.55-3.96-.55-7.13,0-11.09.85-5.97,6.09-9.94,13.53-9.94s12.68,3.96,13.59,9.94c.49,3.96.49,7.13,0,11.09-.85,5.91-6.16,9.94-13.59,9.94s-12.74-4.02-13.53-9.94ZM1406.53,515.2c.37-2.68.37-6.22,0-8.9-.49-3.84-3.72-6.58-7.99-6.58s-7.5,2.74-7.99,6.58c-.31,2.68-.31,6.22,0,8.9.49,3.84,3.72,6.64,7.99,6.64s7.5-2.8,7.99-6.64Z"/>
    <path class="cls-1" d="M1422.94,495.93h4.39l.73,3.96c3.41-2.74,7.01-4.63,10.42-4.63,3.9,0,6.64,1.89,8.05,4.51,3.17-2.62,6.71-4.51,10.24-4.51,6.22,0,9.88,4.39,9.88,10.79v19.51h-5.67v-19.39c0-3.66-1.34-6.46-5.18-6.46-2.31,0-4.75,1.28-7.86,3.72.24.79.36,1.71.36,2.68v19.45h-5.67v-19.39c0-3.53-1.28-6.46-5.12-6.46-2.62,0-5.42,1.77-8.9,4.69v21.15h-5.67v-29.63Z"/>
    <path class="cls-1" d="M1476.71,516.29c-.55-3.96-.55-7.13,0-11.09.85-5.97,6.09-9.94,13.53-9.94s12.68,3.96,13.59,9.94c.49,3.96.49,7.13,0,11.09-.85,5.91-6.16,9.94-13.59,9.94s-12.74-4.02-13.53-9.94ZM1498.23,515.2c.37-2.68.37-6.22,0-8.9-.49-3.84-3.72-6.58-7.99-6.58s-7.5,2.74-7.99,6.58c-.31,2.68-.31,6.22,0,8.9.49,3.84,3.72,6.64,7.99,6.64s7.5-2.8,7.99-6.64ZM1492.44,483.13h5.18l-5.42,7.99h-3.6l3.84-7.99Z"/>
    <path class="cls-1" d="M1515.24,481.79h5.67v43.77h-5.67v-43.77Z"/>
    <path class="cls-1" d="M1532.07,516.29c-.55-3.96-.55-7.13,0-11.09.85-5.97,6.09-9.94,13.53-9.94s12.68,3.96,13.59,9.94c.49,3.96.49,7.13,0,11.09-.85,5.91-6.16,9.94-13.59,9.94s-12.74-4.02-13.53-9.94ZM1553.59,515.2c.37-2.68.37-6.22,0-8.9-.49-3.84-3.72-6.58-7.99-6.58s-7.5,2.74-7.99,6.58c-.31,2.68-.31,6.22,0,8.9.49,3.84,3.72,6.64,7.99,6.64s7.5-2.8,7.99-6.64Z"/>
    <path class="cls-1" d="M1569.68,538l1.65-3.84c4.45,2.01,7.56,2.62,10.18,2.62,3.78,0,6.59-2.93,7.13-6.58.24-1.46.37-2.93.37-4.63v-2.5c-2.99,2.26-6.34,3.17-8.72,3.17-6.77,0-10.97-4.57-11.7-10.12-.55-3.6-.55-7.13,0-10.73.73-5.55,5.49-10.12,12.25-10.12,3.29,0,7.8.43,13.84,2.74v27.55c0,1.83-.18,3.66-.49,5.55-.91,5.42-5.85,10.06-12.56,10.06-3.05,0-7.07-.79-11.95-3.17ZM1589.01,518.85v-17.68c-3.47-1.22-5.61-1.46-7.68-1.46-3.72,0-6.71,2.68-7.25,6.52-.37,2.68-.37,6.28,0,9.02.55,3.84,3.53,6.52,7.13,6.52,2.01,0,4.45-.67,7.8-2.93Z"/>
    <path class="cls-1" d="M1605.17,516.29c-.55-3.96-.55-7.13,0-11.09.85-5.97,6.09-9.94,13.53-9.94s12.68,3.96,13.59,9.94c.49,3.96.49,7.13,0,11.09-.85,5.91-6.16,9.94-13.59,9.94s-12.74-4.02-13.53-9.94ZM1626.69,515.2c.37-2.68.37-6.22,0-8.9-.49-3.84-3.72-6.58-7.99-6.58s-7.5,2.74-7.99,6.58c-.31,2.68-.31,6.22,0,8.9.49,3.84,3.72,6.64,7.99,6.64s7.5-2.8,7.99-6.64Z"/>
    <path class="cls-1" d="M1640.9,522.69l1.58-3.9c4.21,2.32,7.44,3.35,11.34,3.35,2.74,0,5.49-1.83,5.49-5,0-2.62-2.32-3.84-7.01-4.69-5.43-.91-10.42-3.41-10.42-8.9s4.45-8.29,10.55-8.29c5.3,0,9.63,2.74,11.28,3.96l-2.2,3.47c-2.86-2.01-5.85-3.29-8.78-3.29s-5.3,1.71-5.3,4.51c0,2.62,2.19,3.84,5.73,4.57,6.22,1.4,11.7,2.93,11.7,8.6s-4.63,9.08-10.73,9.08c-5.24,0-8.84-1.1-13.23-3.47Z"/>
  </g>
</svg>