<?xml version="1.0" encoding="UTF-8"?>
<svg id="Camada_1" data-name="Camada 1" xmlns="http://www.w3.org/2000/svg" viewBox="0 0 1920 800">
  <defs>
    <style>
      .cls-1 {
        fill: #0080ff;
      }

      .cls-2 {
        fill: #86cc58;
      }

      .cls-3 {
        fill: #05333d;
      }

      .cls-4 {
        fill: #0a7f18;
      }

      .cls-5 {
        fill: #e8c100;
      }
    </style>
  </defs>
  <g>
    <path class="cls-3" d="M699.4,277.64h55.17c39.21,0,65.43,22.57,69.99,51.06,3.19,18.92,3.19,37.16,0,56.08-4.56,28.5-30.55,50.61-69.3,50.61h-55.85v-157.75ZM753.66,408.95c20.06,0,32.6-10.94,36.47-28.04,2.51-11.4,2.51-36.7,0-48.33-3.88-17.32-16.41-28.5-37.39-28.5h-19.15v104.86h20.06Z"/>
    <path class="cls-3" d="M853.96,286.53c0-10.03,8.21-18.69,18.92-18.69s18.92,8.66,18.92,18.69c0,10.71-8.43,19.38-18.92,19.38s-18.92-8.66-18.92-19.38ZM855.79,322.55h34.19v112.84h-34.19v-112.84Z"/>
    <path class="cls-3" d="M912.78,403.25c0-24.85,20.97-35.79,51.52-35.79h19.15v-7.07c0-9.12-4.1-16.41-18.01-16.41-11.4,0-24.39,6.16-32.83,11.4l-11.4-20.06c8.66-5.47,29.86-15.05,51.06-15.05,28.95,0,45.37,16.87,45.37,41.95v73.18h-28.5l-4.56-11.85c-6.61,7.07-18.01,14.13-31.46,14.13-24.39,0-40.35-13.45-40.35-34.42ZM983.45,405.53v-19.15h-15.73c-14.13,0-21.66,5.24-21.66,14.36,0,8.43,5.47,13.22,14.13,13.22,6.84,0,15.27-3.42,23.25-8.43Z"/>
    <path class="cls-3" d="M1055.03,407.36c-.91-5.7-1.14-11.4-1.14-17.33v-42.63h-16.41v-24.85h18.01l3.88-29.86h28.72v29.86h25.76v24.85h-25.76v41.49c0,5.01,0,9.57.91,13.68,1.6,7.75,5.7,9.57,13.45,9.57,3.42,0,7.29-1.14,10.26-2.51l8.21,24.62c-6.61,2.05-14.59,3.42-20.97,3.42-26.67,0-41.49-11.4-44.91-30.32Z"/>
    <path class="cls-3" d="M1136.19,400.06c-2.28-15.05-2.28-27.13,0-42.17,3.19-22.11,24.39-37.61,54.94-37.61s51.75,15.5,55.17,37.61c2.28,15.05,2.28,27.13,0,42.17-3.19,22.34-24.39,37.61-55.17,37.61s-51.75-15.27-54.94-37.61ZM1212.56,392.77c1.14-9.35,1.14-18.24,0-27.58-1.37-10.94-10.03-18.46-21.43-18.46s-19.83,7.52-21.2,18.46c-1.14,9.35-1.14,18.24,0,27.58,1.37,11.17,10.03,18.47,21.2,18.47s20.06-7.29,21.43-18.47Z"/>
    <path class="cls-3" d="M1273.43,322.55h25.76l4.33,13.22c11.85-9.58,25.53-15.5,38.3-15.5,14.82,0,26.22,7.52,32.14,17.1,10.94-9.8,25.08-17.1,39.89-17.1,24.16,0,41.49,16.19,41.49,44v71.13h-34.2v-69.99c0-10.94-3.42-18.69-14.13-18.69-8.43,0-16.19,4.56-25.08,12.08.68,2.05.68,4.1.68,6.38v70.21h-34.2v-69.99c0-9.8-2.74-18.69-14.13-18.69-9.35,0-18.24,6.61-26.67,14.82v73.86h-34.19v-112.84Z"/>
    <path class="cls-2" d="M1486.35,277.64h63.15c28.5,0,49.24,15.96,49.24,41.95,0,14.36-8.21,29.64-21.2,33.05,16.19,3.88,28.72,18.47,28.72,36.7,0,25.53-21.88,46.05-51.06,46.05h-68.85v-157.75ZM1548.81,342.61c10.49,0,19.38-9.12,19.38-20.06s-8.66-20.29-19.38-20.29h-27.58v40.35h27.58ZM1550.18,410.55c12.77,0,22.57-9.8,22.34-22.57-.23-11.4-9.12-22.34-23.02-22.34h-28.27v44.91h28.95Z"/>
    <path class="cls-2" d="M1630.65,322.55h29.63l4.56,13.22c13.22-10.26,26.44-15.5,37.61-15.5v28.72c-12.99,0-25.99,3.88-37.61,12.31v74.09h-34.19v-112.84Z"/>
  </g>
  <g>
    <path class="cls-4" d="M375.18,445.4c.41.92,1.81.54,1.68-.46-.71-5.85-2.14-11.62-3.18-17.44-1.34-7.53-2.01-15.42.34-22.7.76-2.34,2.16-4.86,4.58-5.32,2.64-.5,4.97,1.68,6.7,3.73,11.73,13.97,19.68,30.79,31.66,44.55.98,1.12,2.24,2.32,3.71,2.1,1.64-.25,2.5-2.26,2.15-3.87-.36-1.62-1.54-2.9-2.65-4.14-18.12-20.17-27.43-47.9-25.13-74.84,1.05-12.26,4.36-24.17,8.02-35.95.76-2.44-2.22-4.3-4.1-2.57-4.04,3.71-6.95,8.8-8.93,13.98-2.88,7.51-4.27,15.54-7.27,23-1.4,3.5-3.66,7.24-7.38,7.93-3.08.57-6.08-1.18-8.59-3.04-6.72-4.99-12.42-11.34-16.65-18.55-1.4-2.39-2.85-5.03-4.7-7.07-1.73-1.91-4.88-.3-4.32,2.21,3.35,15.08,26.15,80.87,34.05,98.47Z"/>
    <path class="cls-4" d="M361.02,354.92c.77,2.51,1.98,4.83,4.13,6.59,1.79,1.47,4.16,2.19,6.43,1.7,3.85-.84,5-4.19,5.41-7.34.43-3.31.17-6.84-1.54-9.71-1.71-2.88-5.1-4.91-8.4-4.33-.73.13-1.5.53-2.25,1.07-3.77,2.7-5.12,7.61-3.76,12.03Z"/>
    <path class="cls-1" d="M574.1,392.96c1.25-4.83,2.13-9.84,1.5-14.79-.17-1.34-1.83-5.5-4.31,1.17-2.71,14.2-11.33,42.85-39.93,63.06-3.41,2.41-7.76,3.2-11.92,3.67-2.45.28-5.34.04-6.76-1.96-1.55-2.19-.51-5.19.67-7.6,7.98-16.37,20.15-30.49,27.83-47.01.63-1.34,1.2-2.98.39-4.23-.9-1.39-3.1-1.34-4.43-.35-1.33.99-2.03,2.59-2.7,4.1-11.04,24.71-32.64,44.56-58.3,53.55-11.67,4.09-23.96,5.99-36.27,7.53-2.55.32-3.03,3.78-.67,4.78,5.06,2.14,10.93,2.67,16.49,2.34,8.08-.48,16-2.53,24.09-2.88,3.78-.17,8.15.33,10.31,3.42,1.79,2.55,1.42,5.99.74,9.03-1.81,8.14-5.29,15.92-10.16,22.71-1.61,2.25-3.44,4.65-4.55,7.16-1.04,2.35,1.73,4.54,3.8,3,.06-.04.11-.08.17-.13,6.86-5.14,13.19-11.06,19.54-16.8,9.36-8.45,19.29-18.85,29.37-26.44,33.87-25.48,42.78-54.33,45.12-63.36Z"/>
    <path class="cls-1" d="M475.95,480.7c3.3-2.21,6.34-4.82,7.44-8.78.61-2.22.29-4.67-1.09-6.52-2.35-3.15-5.9-2.81-8.95-1.88-3.21.98-6.34,2.66-8.27,5.39-1.93,2.73-2.41,6.64-.51,9.39,1.9,2.75,6.38,3.57,8.73,1.18h0c.14,1.27,1.59,1.93,2.66,1.21Z"/>
    <path class="cls-2" d="M403.26,487.46c12.76,10.97,27.07,19.6,42.53,25.64h0c2.81,1.1,6.01,2.22,9.34,2.22.65,0,1.31-.04,1.97-.14,2.77-.44,4.11-2.69,4.21-4.73.1-2.09-1.04-4.53-3.83-5.24-22.13-5.69-38.1-13.44-50.23-24.38-2.67-2.41-5.38-5.27-8.25-8.3-5.38-5.69-10.95-11.56-17.16-15.44-1.03-.64-2.29-.49-3.15.37-.86.87-.98,2.13-.32,3.14,1.6,2.44,3.7,4.83,5.56,6.93.74.84,1.44,1.64,2.05,2.37,5.22,6.27,11.04,12.18,17.29,17.55Z"/>
    <path class="cls-2" d="M405.12,250.44c-3.04-.05-5.73,1.43-6.94,3.8-1.11,2.18-.79,4.67.89,6.85,1.45,1.88,3.81,2.99,6.18,2.99.48,0,.96-.04,1.43-.14,1.61-.32,3.04-1.15,4.03-2.32,1.66-1.97,1.97-4.98.75-7.32-1.19-2.28-3.67-3.79-6.33-3.85Z"/>
    <path class="cls-2" d="M402.28,306.99c-1.42-.02-2.68.67-3.24,1.77-.52,1.02-.37,2.18.41,3.2.68.88,1.78,1.4,2.89,1.4.22,0,.45-.02.67-.06.75-.15,1.42-.54,1.88-1.09.77-.92.92-2.33.35-3.42-.56-1.07-1.72-1.77-2.96-1.8Z"/>
    <path class="cls-2" d="M271.57,367.13c-1.42-.02-2.68.67-3.24,1.77-.52,1.02-.37,2.18.41,3.2.68.88,1.78,1.4,2.89,1.4.22,0,.45-.02.67-.06.75-.15,1.42-.54,1.88-1.09.77-.92.92-2.33.35-3.42-.56-1.07-1.72-1.77-2.96-1.8Z"/>
    <path class="cls-2" d="M413.18,299.77c-1.42-.02-2.68.67-3.24,1.77-.52,1.02-.37,2.18.41,3.2.68.88,1.78,1.4,2.89,1.4.22,0,.45-.02.67-.06.75-.15,1.42-.54,1.88-1.09.77-.92.92-2.33.35-3.42-.56-1.07-1.72-1.77-2.96-1.8Z"/>
    <path class="cls-2" d="M425.28,293.76c-1.42-.02-2.68.67-3.24,1.77-.52,1.02-.37,2.18.41,3.2.68.88,1.78,1.4,2.89,1.4.22,0,.45-.02.67-.06.75-.15,1.42-.54,1.88-1.09.77-.92.92-2.33.35-3.42-.56-1.07-1.72-1.77-2.96-1.8Z"/>
    <path class="cls-2" d="M483.79,254.04c-3.04-.05-5.73,1.43-6.94,3.8-1.11,2.18-.79,4.67.89,6.85,1.45,1.88,3.81,2.99,6.18,2.99.48,0,.96-.04,1.43-.14,1.61-.32,3.04-1.15,4.03-2.32,1.66-1.97,1.97-4.98.75-7.32-1.19-2.28-3.67-3.79-6.33-3.85Z"/>
    <path class="cls-2" d="M519.14,370.26c-2.17-.04-4.1,1.02-4.96,2.71-.79,1.56-.56,3.34.63,4.89,1.04,1.35,2.72,2.14,4.42,2.14.34,0,.69-.03,1.02-.1,1.15-.23,2.17-.82,2.88-1.66,1.19-1.41,1.41-3.56.53-5.23-.85-1.63-2.63-2.71-4.52-2.75Z"/>
    <path class="cls-2" d="M516.63,392.95c-1.17-.02-2.21.55-2.67,1.46-.43.84-.3,1.8.34,2.63.56.72,1.46,1.15,2.38,1.15.18,0,.37-.02.55-.05.62-.12,1.17-.44,1.55-.89.64-.76.76-1.92.29-2.82-.46-.88-1.41-1.46-2.43-1.48Z"/>
    <path class="cls-2" d="M507.04,353.42c-2.17-.04-4.1,1.02-4.96,2.71-.79,1.56-.56,3.34.63,4.89,1.04,1.35,2.72,2.14,4.42,2.14.34,0,.69-.03,1.02-.1,1.15-.23,2.17-.82,2.88-1.66,1.19-1.41,1.41-3.56.53-5.23-.85-1.63-2.63-2.71-4.52-2.75Z"/>
    <path class="cls-2" d="M437.36,380.25c2.42-.48,4.57-1.72,6.06-3.49,2.49-2.96,2.95-7.49,1.12-11-1.76-3.38-5.59-5.71-9.53-5.79-4.55-.1-8.65,2.14-10.47,5.71-1.66,3.26-1.17,7,1.34,10.27,2.18,2.84,5.74,4.51,9.32,4.51.72,0,1.45-.07,2.16-.21Z"/>
    <path class="cls-2" d="M264.55,255.37c.72,0,1.45-.07,2.16-.21,2.42-.48,4.57-1.72,6.06-3.49,2.49-2.96,2.95-7.49,1.12-11-1.76-3.38-5.59-5.71-9.53-5.79-4.56-.11-8.65,2.14-10.47,5.71-1.66,3.26-1.17,7,1.34,10.27,2.18,2.84,5.74,4.51,9.32,4.51Z"/>
    <path class="cls-2" d="M447.75,432c1.3,0,2.61-.12,3.89-.38,4.35-.86,8.22-3.09,10.89-6.27,4.46-5.31,5.29-13.43,2-19.73-3.17-6.08-10.06-10.26-17.14-10.41-8.19-.18-15.58,3.86-18.85,10.26-2.97,5.83-2.09,12.54,2.43,18.41,3.93,5.11,10.34,8.12,16.78,8.12Z"/>
    <path class="cls-2" d="M425.92,265.84c.6,0,1.19-.06,1.78-.17,2-.4,3.78-1.42,5.01-2.89,2.06-2.45,2.44-6.19.93-9.09-1.46-2.8-4.62-4.72-7.87-4.79-3.78-.06-7.14,1.77-8.65,4.72-1.38,2.7-.97,5.79,1.11,8.5,1.8,2.34,4.74,3.72,7.69,3.72Z"/>
    <path class="cls-2" d="M288.87,326.77c-2.3-.03-4.36,1.08-5.28,2.88-.84,1.65-.59,3.54.68,5.19,1.1,1.43,2.89,2.27,4.69,2.27.36,0,.73-.04,1.09-.11,1.22-.24,2.31-.87,3.06-1.76,1.26-1.5,1.49-3.78.57-5.55-.89-1.71-2.82-2.88-4.8-2.92Z"/>
    <path class="cls-2" d="M226.04,320.35c.37,0,.74-.04,1.11-.11,1.24-.25,2.35-.89,3.12-1.8,1.29-1.53,1.53-3.87.58-5.68-.92-1.77-2.84-2.94-4.9-2.98-2.36-.07-4.43,1.11-5.37,2.94-.86,1.69-.62,3.63.68,5.32,1.12,1.45,2.94,2.31,4.77,2.31Z"/>
    <path class="cls-2" d="M571.51,346.8c-2.71-5.69-6.56-10.95-11.12-15.21l-.65-.61c-2.01-1.9-4.52-4.26-7.05-5.25-1.03-.4-1.85-.35-2.44.15-1.06.89-.91,2.87-.6,4.37,1.25,6.01,5.23,12.23,9.34,18.05,3.68,5.22,7.99,9.96,12.79,14.08.44.38.99.58,1.55.58.39,0,.79-.1,1.16-.29.88-.47,1.36-1.4,1.23-2.42-.24-1.55-.57-3.12-.98-4.67-.78-2.99-1.87-5.95-3.22-8.79Z"/>
    <path class="cls-2" d="M525.96,274.71c-3.15-3.39-6.99-6.24-11.12-8.23l-.59-.29c-1.83-.89-4.1-2-6.09-2.14-.81-.06-1.37.16-1.68.63-.55.85,0,2.21.54,3.19,2.19,3.93,6.34,7.42,10.5,10.61,3.72,2.85,7.78,5.23,12.04,7.08.39.17.82.19,1.21.07.27-.09.53-.24.74-.46.51-.52.65-1.28.33-1.96-.51-1.03-1.09-2.06-1.71-3.05-1.2-1.92-2.61-3.76-4.18-5.45Z"/>
    <path class="cls-2" d="M419.46,387.65c0-6.29-1.2-12.68-3.49-18.48l-.32-.83c-1-2.57-2.24-5.78-4.1-7.75-.76-.8-1.52-1.1-2.27-.91-1.34.35-2.06,2.2-2.43,3.7-1.47,5.96-.56,13.27.65,20.29,1.08,6.28,2.92,12.4,5.48,18.17.24.53.65.94,1.15,1.18.35.17.75.25,1.17.23,1-.05,1.84-.69,2.15-1.66.45-1.5.83-3.06,1.13-4.63.58-3.04.88-6.17.88-9.31Z"/>
    <path class="cls-2" d="M463.18,336.98c.03-.21.03-.42,0-.64-.12-.99-.81-1.78-1.81-2.03-1.55-.35-3.14-.63-4.72-.82-3.09-.38-6.25-.47-9.41-.27-6.41.41-12.58,1.97-18.33,4.65l-.81.37c-2.52,1.16-5.66,2.6-7.51,4.57-.75.8-1.01,1.58-.77,2.31.44,1.31,2.35,1.9,3.87,2.17,6.08,1.07,13.37-.31,20.33-1.95,6.24-1.47,12.26-3.7,17.89-6.61.69-.36,1.15-1.01,1.25-1.75Z"/>
    <path class="cls-2" d="M442.82,555.56c.05-.17.07-.35.08-.54,0-.85-.49-1.6-1.31-1.92-1.27-.46-2.59-.87-3.92-1.21-2.58-.66-5.25-1.08-7.95-1.25-5.48-.34-10.88.32-16.05,1.97l-.72.23c-2.26.71-5.08,1.59-6.87,3.07-.73.6-1.03,1.23-.9,1.88.23,1.16,1.78,1.87,3.04,2.26,5.04,1.56,11.37,1.18,17.45.53,5.45-.58,10.8-1.82,15.89-3.68.63-.23,1.08-.73,1.25-1.35Z"/>
    <path class="cls-2" d="M557.37,453.15h0c-1.77,0-3.24.98-4.73,2.08-14.41,10.66-27.77,22.82-39.72,36.14-2.84,3.17-3.57,6.11-1.98,8.05.79.97,1.95,1.45,3.44,1.45,1.12,0,2.42-.27,3.89-.82,10.3-3.87,19.84-10.28,27.57-18.54,2.05-2.19,16.57-21.45,14.2-26.86-.3-.69-1.01-1.5-2.68-1.51Z"/>
    <path class="cls-2" d="M466.52,527.59c7.58-.6,15.02-2.1,22.13-4.45,3.55-1.18,6.99-2.38,10.07-4.03.39-.21.76-.45,1.14-.7,1.09-.74,2.45-.67,3.45.2,1.01.87,1.29,2.26.7,3.45-2.51,5.06-7.72,10.04-11.76,13.01-6.59,4.86-14.7,7.87-22.84,8.48-3.02.23-6.1.16-9.21-.19-12.08-1.35-24.54-6.95-35.34-16.06-1.24-1.05-1.19-2.55-.59-3.57.6-1.02,1.89-1.8,3.43-1.25,12.16,4.39,25.59,6.16,38.82,5.11Z"/>
    <path class="cls-2" d="M476.35,552.61c-.77-.76-2.39.22-3.05.67h0c-7.57,5.2-15.9,9.43-24.75,12.57-15.68,5.55-32.67,7.5-49.16,5.65-.34-.04-.89-.13-1.58-.25l-.13-.02c-2.47-.43-8.25-1.45-9.41-.37-.09.08-.15.18-.13.37.28,2.61,7.37,4.1,12.55,5.18,3.28.69,6.1,1.28,7.39,2.08,2.98,1.85,4.86,5.29,4.58,8.37-.22,2.43-1.8,4.33-4.43,5.37-1.67.66-3.61.81-5.61.45l-1.02-.19c-.92-.17-1.92-.36-2.94-.51-.11-.02-.22-.02-.32-.02-1.13,0-1.62.91-1.74,1.49-.03.17-.28,1.65,1.3,2.04,6.12,1.51,12.5,2.28,18.96,2.28h.02c18.34,0,36.7-6.3,50.38-17.28,2.97-2.38,6.29-5.97,5.67-9.73-2.77.08-5.03,2.37-7.22,4.6l-.88.89c-3.1,3.09-7.82,5.12-10.85,2.27-1.86-1.74-2.21-4.66-.87-7.08,1.89-3.4,5.23-4.78,8.46-6.12.63-.26,1.26-.52,1.88-.79,4.6-2.05,8.78-5.12,12.1-8.89.62-.71,1.6-2.25.83-3Z"/>
    <path class="cls-2" d="M229.63,299.94l.61-.11c6.35-1.19,11.57-5.26,16.62-9.19l.27-.21c25.47-19.83,49.07-34.06,72.13-43.52,27.94-11.46,56.48-16.23,82.53-13.78,2.84.25,10.31-1.29,11.39-4.29.49-1.35-.25-2.7-2.19-4-1.3-.87-3.58-.97-5.6-1.06-.89-.04-1.72-.07-2.33-.17-1.24-.2-2.47-.42-3.69-.64-2.5-.44-5.08-.9-7.67-1.19-14.83-1.66-30.53-.64-46.67,3.02-8.6,1.95-17.29,4.65-25.83,8.04h0c-30.12,11.95-56.73,31.22-78.78,48.49-5.73,4.48-12.14,10.58-10.89,18l.1.61Z"/>
    <path class="cls-2" d="M336.5,255.71c-8.82,6.13-15.99,13.23-16.06,13.3l-.59.59,2.7,1.34.19-.03c.69-.11,17.06-2.71,22.43-6.27,5.33-3.53,15.66-15.48,16.1-15.99l.37-.42-1.51-1.5-.31.06c-.59.11-14.43,2.74-23.31,8.92Z"/>
    <path class="cls-2" d="M319.07,323.73c.43-1.06.88-2.16,1.07-3.35.3-1.89-.09-3.76-.46-5.57-.39-1.9-.76-3.69-.35-5.41.13-.53.52-2.13-.73-2.72-1.16-.54-2.19.66-3.01,1.63-.28.32-.69.81-.86.9-.33.16-1.59.52-2.93.89-3.7,1.04-9.3,2.61-11.39,4.41-.29.25-.57.51-.86.77-1.15,1.04-2.23,2.03-3.7,2.47-.79.23-1.99.59-2.16,1.78-.23,1.62,1.69,2.18,2.51,2.42,1.64.48,5.08,3.01,8.12,5.24,2.98,2.18,5.55,4.07,6.88,4.46h.04s.48.14.48.14c1.73.46,3.52.94,4.38,2.6.11.21.3.43.63.52.26.07.61.08,1.07-.05.39-.11.73-.38.93-.76.25-.46.31-1.04.15-1.56-.14-.46-.39-.83-.62-1.16-.09-.13-.17-.25-.25-.38-.62-1.06-.14-4.01.45-5.74.18-.51.38-1.02.59-1.52Z"/>
    <path class="cls-2" d="M452.28,483.7c.09-.85.18-1.73.07-2.62-.18-1.42-.85-2.68-1.49-3.89-.68-1.28-1.32-2.49-1.38-3.81-.02-.4-.07-1.63-1.09-1.79-.94-.15-1.43.93-1.82,1.79-.13.29-.33.72-.43.82-.2.18-1.03.7-1.91,1.25-2.44,1.51-6.12,3.79-7.23,5.51-.15.24-.3.48-.46.73-.6.98-1.18,1.91-2.13,2.53-.52.33-1.3.83-1.18,1.72.17,1.21,1.67,1.21,2.31,1.22,1.27,0,4.27,1.11,6.91,2.08,2.59.95,4.83,1.77,5.86,1.77h.4c1.33-.04,2.72-.06,3.68.95.12.13.31.24.56.24.2,0,.45-.07.76-.26.26-.16.44-.43.51-.74.08-.38,0-.81-.22-1.15-.2-.3-.46-.51-.68-.7-.09-.07-.18-.14-.26-.22-.67-.63-.94-2.85-.88-4.21.02-.4.06-.81.1-1.21Z"/>
    <path class="cls-2" d="M469.13,369.74c-.68-.52-1.39-1.06-2.21-1.43-1.31-.59-2.74-.69-4.12-.78-1.45-.1-2.82-.19-3.99-.83-.36-.2-1.44-.79-2.11-.01-.62.72.04,1.69.58,2.48.18.26.45.65.48.79.05.27.06,1.24.06,2.27.02,2.85.04,7.17.93,9.01.12.26.25.51.39.77.53,1.03,1.02,2,1.05,3.13.01.61.03,1.54.86,1.9,1.12.49,1.91-.78,2.25-1.32.67-1.08,3.19-3.03,5.4-4.76,2.17-1.69,4.05-3.15,4.59-4.03l.02-.02.19-.32c.67-1.15,1.38-2.33,2.75-2.61.18-.04.37-.13.51-.35.11-.17.18-.42.17-.78,0-.3-.13-.6-.37-.82-.28-.27-.69-.43-1.1-.42-.36,0-.68.12-.96.21-.11.04-.22.07-.33.1-.89.24-2.93-.7-4.06-1.46-.34-.23-.66-.48-.99-.72Z"/>
    <path class="cls-2" d="M480.23,347.5c-1.52-.74-2.79-.84-3.78-.29-2.06,1.15.36,6.64,4.31,14.9,1.11,2.33,2.07,4.35,2.33,5.23,4.27,14.64,3.74,30.28-1.49,44.03l-.14.37c-.63,1.63-1.27,3.32-1.21,5.13.07,2,1.27,4.26,3.46,4.69.25.05.5.07.75.07,2.06,0,3.82-1.68,5.15-3.21,4.35-4.96,8.84-10.09,12.09-16,2.56-4.66,5.36-11.83,4.18-19.51-1.07-7-17.2-31.32-25.65-35.43Z"/>
    <path class="cls-2" d="M385.81,310.08c9.66-11.84,22.88-20.33,37.23-23.91l.39-.1c1.71-.42,3.48-.86,4.94-1.94,1.62-1.2,2.79-3.47,1.9-5.5-.97-2.21-3.69-2.78-5.95-3.03-6.58-.72-13.38-1.46-20.12-.74-5.31.57-12.83,2.37-18.51,7.72-5.17,4.87-16.06,31.91-14.64,41.15.26,1.66.9,2.75,1.91,3.25.18.09.37.13.57.13,2.11,0,5.1-4.9,9.29-12.15,1.29-2.24,2.41-4.17,2.99-4.89Z"/>
    <path class="cls-2" d="M352.01,323.56c.37-1.43.59-2.9.81-4.32l.08-.51c1.58-10.14,4.2-18.43,8.02-25.35,4.56-8.27,11.14-14.76,18.53-18.29l.2-.1c1.04-.49,2.22-1.05,3.23-1.77,1.04-.73,1.38-1.98.84-3.12-.54-1.13-1.71-1.67-2.93-1.34-5.54,1.5-10.64,4.35-14.77,8.25-.39.37-.77.74-1.15,1.12l-.1.1c-1.27,1.26-2.47,2.46-3.91,3.29-1.46.84-3.1,1.12-4.4.77-.92-.25-1.64-.82-2.14-1.7-.43-.77-.6-1.72-.47-2.68.29-2.18,1.86-4.15,4.52-5.68,1.34-.77,2.78-1.36,4.29-1.97.73-.3,1.44-.58,2.14-.89.68-.3,1.34-.61,1.99-.94,1.23-.63,1.7-2,1.13-3.25-.43-.94-1.29-1.48-2.24-1.48-.32,0-.64.06-.97.19-9.12,3.61-17.13,9.52-23.14,17.07-7.83,9.82-12.1,22.12-12.03,34.62-.17,2.28-.2,4.49-.1,6.66.04.86.13,1.76.65,2.58.73,1.13,2.25,1.63,3.35,1.07.34-.17,1.39-.71,1.47-3.04.24-7.24,1.12-14.5,2.62-21.6.43-2.05,1.03-4.32,2.65-5.43,1.87-1.27,4.83-.7,6.89-.16.97.25,1.8.63,2.46,1.12,3.28,2.44,2,6.47.75,10.36l-.09.29c-1.6,5.02-2.51,10.24-2.69,15.51-.04,1.2.76,2.15,1.95,2.32,1.2.17,2.24-.52,2.55-1.7Z"/>
    <path class="cls-2" d="M547.9,282.62l38.67,22.85c.88.52,1.87,1.05,2.91,1.05.25,0,.5-.03.75-.1,1.43-.38,2.25-1.07,2.43-2.04.44-2.32-3.22-5.3-4.81-6.47-1.87-1.37-3.58-3.06-5.23-4.69-1.69-1.66-3.44-3.39-5.4-4.83-7.88-5.82-17.07-9.63-26.58-11.03-1.39-.2-3.23,0-4.22.92-.5.47-.74,1.07-.68,1.75.11,1.37,1.49,2.19,2.16,2.58Z"/>
    <path class="cls-2" d="M611.51,322.1c-1.75-4.7-4.71-8.94-8.57-12.27-1.36-1.18-5.98-4.92-8.21-3.74-.88.47-1.21,1.54-1,3.2.36,2.78,2.12,5.74,3.83,8.6,1.12,1.89,2.19,3.68,2.82,5.34,1.93,5.07,3.25,10.35,3.93,15.68l.02.19c.17,1.36.35,2.76,1.12,3.98.66,1.04,1.9,1.87,3.16,1.87.37,0,.74-.07,1.09-.22,1.28-.55,1.86-1.92,2.23-3.05,2.05-6.35,1.9-13.3-.43-19.56Z"/>
    <path class="cls-2" d="M577.54,318.37c-4.9-4.91-10.51-8.64-16.24-10.81-2.02-.76-8.72-3.06-9.78-.49-.42,1.01.06,2.51,1.44,4.43,2.31,3.23,5.97,5.99,9.5,8.66,2.33,1.76,4.54,3.43,6.28,5.15,5.32,5.27,10.26,11.1,14.69,17.31l.15.22c1.13,1.59,2.29,3.22,3.83,4.34,1.32.95,2.99,1.34,4.08.71.32-.18.59-.45.78-.82.71-1.32.22-3.29-.27-4.86-2.8-8.84-7.94-17.3-14.46-23.84Z"/>
    <path class="cls-2" d="M227.69,337.73c-9.25-8.1-19.87-14.89-22.27-12.18-2.39,2.7,5.72,12.31,14.97,20.41,7.84,6.87,16.67,12.79,20.63,12.79.71,0,1.27-.19,1.63-.6,2.39-2.7-5.72-12.31-14.97-20.41Z"/>
    <path class="cls-2" d="M311.31,224.03c1.3,0,2.93-.19,4.89-.57,4.62-.9,10.46-2.77,16.47-5.25,6-2.49,11.46-5.3,15.35-7.92,4.25-2.86,6.07-5.08,5.43-6.62-.64-1.54-3.52-1.82-8.56-.84-4.62.9-10.46,2.77-16.47,5.25-6,2.49-11.46,5.3-15.35,7.92-4.25,2.86-6.07,5.08-5.43,6.62.39.94,1.62,1.41,3.66,1.41Z"/>
    <path class="cls-2" d="M449.3,249.28l.63.59.34-.8c2.33-5.45,7.07-8.68,14.48-9.9l.84-.14-.41-.74c-6-10.97-13.2-21.33-21.4-30.79l-.54-.62-.44.69c-3.45,5.46-8.34,8.82-14.54,9.98l-.74.14.29.69c5.07,11.87,12.29,22.26,21.46,30.88Z"/>
    <path class="cls-2" d="M585.34,409.89c3.07-9.02,4.5-18.8,2.52-28.12-.34-1.58-.77-3.19-.54-4.78s1.36-3.2,2.98-3.4c.99-.12,1.95.3,2.86.71l16.59,7.47c.97.44,1.83,1.13,2.32,2.07,1.36,2.58-.99,4.59-3.26,5.08-1.83.4-3.74.17-5.57.57-5.02,1.1-7.74,6.38-9.78,11.07-3.89,8.95-7.77,17.9-11.66,26.86-1.87,4.31-4.08,9.65-7.55,13.37-1.57,1.69-4.35-.11-3.42-2.21,1.34-3.01,3.55-5.77,5.18-8.48,3.79-6.3,6.97-13.25,9.34-20.2Z"/>
    <path class="cls-2" d="M348.41,407.65c-2.68-4.97-5.36-9.94-8.04-14.91-1.4-2.61-2.83-5.73-1.52-8.38.47-.96,1.27-1.74,1.75-2.71.48-.96.52-2.3-.33-2.95-.94-.72-2.29-.2-3.34.34-2.87,1.46-9.88,4.3-12.75,5.76-.51.26-1.05.54-1.35,1.03-.49.79-.17,1.88.48,2.56.77.82,3.75-1.15,8.94.78.42.16,1.03.54,1.36.83,5.52,4.95,10.84,13,13.95,21.21.78,2.05,1.29,4.5,2.59,6.35.54.77,1.8.39,1.76-.55-.12-3.27-2.03-6.65-3.49-9.36Z"/>
    <path class="cls-2" d="M388.81,438.61c.32.68.65,1.38,1.22,1.88.56.5,1.42.75,2.09.4.88-.47,1-1.67.92-2.66-.21-2.65-2.42-12.1-6.42-11.7-4.3.43,1.38,10.36,2.19,12.09Z"/>
    <path class="cls-2" d="M396.17,444.78c-.52-.54-1.06-1.1-1.76-1.39s-1.59-.26-2.11.29c-.69.73-.41,1.9,0,2.82,1.05,2.44,6.21,10.68,9.87,9.03,3.93-1.78-4.66-9.36-5.99-10.74Z"/>
    <path class="cls-2" d="M418.46,468.69c-.71-.26-1.44-.52-2.2-.48s-1.54.46-1.77,1.18c-.29.95.48,1.89,1.24,2.54,2.03,1.73,10.3,6.89,12.85,3.81,2.74-3.32-8.32-6.38-10.13-7.04Z"/>
    <path class="cls-2" d="M407.06,458.01c-.52-.54-1.06-1.1-1.76-1.39s-1.59-.26-2.11.29c-.69.73-.41,1.9,0,2.82,1.05,2.44,6.21,10.68,9.87,9.03,3.93-1.78-4.66-9.36-5.99-10.74Z"/>
    <path class="cls-2" d="M264.78,353.36c-4.21-.93-7.93-3.44-10.95-6.48-3.03-3.05-5.44-6.63-7.84-10.19-.66-.99-1.36-2.15-1.01-3.29.37-1.21,1.8-1.81,3.07-1.74s2.45.62,3.67.98c5.38,1.58,11.27-.65,16.73.63,8.61,2.02,13.21,11.84,21.43,15.1,5.82,2.31,12.86,1.06,18.15,4.4,2.74,1.73,4.64,4.48,6.45,7.16,1.85,2.72,3.7,5.45,5.55,8.17.51.76,1.05,1.63.84,2.52-.34,1.45-2.26,1.75-3.76,1.74-3.46-.03-6.92-.05-10.38-.08-3.79-.03-7.7-.08-11.16-1.6-4.54-1.99-7.56-6.11-10.76-9.7-1.62-1.81-3.35-3.47-5.25-5-1.7-1.37-3.49-1.67-5.65-1.85-3.05-.26-6.14-.11-9.14-.77Z"/>
    <path class="cls-2" d="M273.12,309.42c-2.51,2.38-5.86,3.74-9.27,4.39s-6.9.66-10.37.66c-.96,0-2.06-.06-2.67-.8-.65-.79-.41-2.01.2-2.82.61-.81,1.51-1.36,2.3-2.01,3.47-2.87,4.6-7.8,7.91-10.86,5.21-4.83,13.89-3.5,19.76-7.52,4.16-2.84,6.46-8.09,11.08-10.12,2.39-1.05,5.1-1.08,7.71-1.1,2.66-.01,5.33-.03,7.99-.04.74,0,1.57.03,2.07.57.83.88.17,2.29-.51,3.28-1.56,2.29-3.13,4.59-4.69,6.88-1.71,2.51-3.5,5.09-6.07,6.71-3.37,2.13-7.5,2.3-11.35,2.83-1.95.27-3.84.68-5.72,1.26-1.69.52-2.68,1.57-3.78,2.93-1.54,1.91-2.82,4.04-4.61,5.74Z"/>
    <path class="cls-5" d="M540.61,338.7c-1.48-3.45-8.1-17.62-10.14-21.24-.02-.04-.05-.08-.07-.12,2.35-5.07,3.72-5.58,4.89-10.57-9.11-9.44-24.26-10.26-42.19-16h0c-3.3-1.43-7.24-3.67-13.7-8.35-4.44-3.22-23.39-16.45-28.3-18.26-.04-.01-.08-.03-.12-.04-1.45-.52-2.86,1.6-1.94,2.93.99,1.43,2.41,2.61,3.69,3.76,3.93,3.52,20.87,19.61,23.17,24.97.87,2.02,1.6,4.42.78,6.65-.98,2.71-3.75,3.99-6.21,4.67-5.17,1.42-40.18-2.56-44,1.57-1.14,1.24-1.64,4.8,2.13,4.46,7.5-.67,33.41,1.43,41.12,3.24,5.56,1.3,9.96,2.02,13.74,2.85,0,.02-.01.04-.02.06,14.44,3.26,16.34,13.82,25.13,25.46,1.5-1.21,2.91-2.43,4.26-3.67.8.89,1.56,1.81,2.27,2.78,1.63,2.24,7.99,11.27,9.32,13.74,1.86,3.43,3.92,6.82,5.93,10.14.87,1.44,2.43,5.23,4.61,4.73,3.79-.87-2.06-11.63-2.82-13.4-1.48-3.45-8.1-17.62-10.14-21.24-.73-1.29-1.51-2.57-2.34-3.82,2.2-2.58,4.14-5.18,5.84-7.81,2.54,3.6,6.38,9.16,7.38,11.02,1.86,3.43,3.92,6.82,5.93,10.14.87,1.44,2.43,5.23,4.61,4.73,3.79-.87-2.06-11.63-2.82-13.4Z"/>
    <path class="cls-5" d="M469.05,293.72c1.98,2.39,2.26,6.45-.25,8.29-1.34.98-3.13,1.11-4.79.98-2.53-.18-5.12-.91-7.01-2.6-1.89-1.69-2.9-4.49-1.96-6.84.93-2.35,3.75-4.7,6.84-3.72,2.78.59,4.98,2.52,7.16,3.89Z"/>
    <path class="cls-2" d="M560.01,366.88c-.52-2.36-1.28-4.66-2.22-6.87-.81-1.9-3.02-2.78-4.92-1.96h0c-1.81.78-2.7,2.83-2.02,4.67.2.54.39,1.09.57,1.65,3.32,10.39,1.99,21.81-1.63,32.1-3.04,8.66-7.62,16.67-12.42,24.52-1.36,2.23,1.36,4.79,3.47,3.23.13-.1.26-.2.39-.31,1.81-1.51,3.02-3.6,4.2-5.64,4.54-7.91,9.11-15.89,12.13-24.49,3.01-8.61,4.41-17.98,2.45-26.88Z"/>
  </g>
  <g>
    <path class="cls-3" d="M701.8,484.06h16.16c7.26,0,12.14,5.92,12.14,12.62,0,5.31-3.05,10.06-7.87,11.71l7.93,17.2h-5.37l-7.5-16.22h-9.82v16.22h-5.67v-41.53ZM716.68,504.92c4.21,0,7.68-3.48,7.68-8.36s-3.48-8.05-7.68-8.05h-9.21v16.41h9.21Z"/>
    <path class="cls-3" d="M737.17,516.33c-.49-3.96-.55-7.14,0-11.1.79-5.98,5.85-9.94,13.05-9.94s12.32,3.96,13.17,9.94c.31,2.62.43,4.94.31,7.2h-21.35c0,1.59.12,2.93.43,3.96.73,3.42,3.84,5.73,7.99,5.73s7.2-1.28,9.58-3.05l1.77,3.9c-3.23,2.07-6.59,3.29-11.59,3.29-7.44,0-12.62-4.03-13.36-9.94ZM758.21,508.95c0-1.04-.12-1.95-.18-2.93-.49-3.84-3.54-6.59-7.75-6.59s-7.32,2.74-7.81,6.59c-.06.98-.12,2.01-.12,2.93h15.86Z"/>
    <path class="cls-3" d="M773.4,516.15c-.55-3.6-.49-7.14,0-10.73.73-5.55,5.18-10.12,11.53-10.12,2.62,0,5.73,1.04,8.9,3.17v-16.65h5.67v43.79h-5.25l-.43-2.26c-3.23,2.13-6.71,2.93-9.03,2.93-6.34,0-10.61-4.57-11.4-10.12ZM793.83,519.13v-16.53c-3.48-2.2-5.85-2.87-7.87-2.87-3.72,0-6.46,2.68-7.01,6.4-.43,2.75-.43,6.59,0,9.21.61,3.84,3.29,6.46,7.01,6.46,2.01,0,4.09-.67,7.87-2.68Z"/>
    <path class="cls-3" d="M810.05,516.33c-.49-3.96-.55-7.14,0-11.1.79-5.98,5.85-9.94,13.05-9.94s12.32,3.96,13.17,9.94c.31,2.62.43,4.94.31,7.2h-21.35c0,1.59.12,2.93.43,3.96.73,3.42,3.84,5.73,7.99,5.73s7.2-1.28,9.58-3.05l1.77,3.9c-3.23,2.07-6.59,3.29-11.59,3.29-7.44,0-12.62-4.03-13.36-9.94ZM831.09,508.95c0-1.04-.12-1.95-.18-2.93-.49-3.84-3.54-6.59-7.75-6.59s-7.32,2.74-7.81,6.59c-.06.98-.12,2.01-.12,2.93h15.86Z"/>
    <path class="cls-3" d="M868.78,484.06h13.72c6.71,0,11.89,4.39,11.89,10.73,0,4.51-3.05,8.11-5.61,8.84,4.7,1.22,8.23,5.06,8.23,10.25,0,6.65-5.49,11.71-12.93,11.71h-15.31v-41.53ZM882.32,502.12c3.66,0,6.89-2.99,6.89-6.95s-3.11-6.83-6.89-6.83h-7.81v13.78h7.81ZM883.42,521.39c4.76,0,7.99-3.29,7.99-7.68,0-3.78-2.81-7.62-8.48-7.62h-8.42v15.31h8.9Z"/>
    <path class="cls-3" d="M906.53,495.96h4.94l.73,3.96c3.6-2.81,6.95-4.63,10.12-4.63v4.94c-3.29,0-6.46,1.34-10.12,4.21v21.16h-5.67v-29.64Z"/>
    <path class="cls-3" d="M927.57,517.18c0-6.04,5-9.09,12.87-9.09h6.83v-2.68c0-3.48-2.07-6.04-6.22-6.04-3.42,0-7.01,1.83-9.27,3.23l-2.07-3.54c2.13-1.28,7.2-3.78,12.32-3.78,6.46,0,10.86,4.09,10.86,10.43v19.88h-4.76l-.73-3.48c-2.26,1.77-6.16,4.15-9.7,4.15-6.04,0-10.12-3.66-10.12-9.09ZM947.27,518.77v-7.26h-6.4c-4.82,0-7.81,1.77-7.81,5.31s2.13,5.37,5.61,5.37c1.77,0,4.94-1.04,8.6-3.42Z"/>
    <path class="cls-3" d="M962.33,522.73l1.59-3.9c4.21,2.32,7.44,3.35,11.34,3.35,2.75,0,5.49-1.83,5.49-5,0-2.62-2.32-3.84-7.01-4.7-5.43-.92-10.43-3.42-10.43-8.91s4.45-8.29,10.55-8.29c5.31,0,9.64,2.74,11.28,3.96l-2.2,3.48c-2.87-2.01-5.85-3.29-8.78-3.29s-5.31,1.71-5.31,4.51c0,2.62,2.2,3.84,5.73,4.57,6.22,1.4,11.71,2.93,11.71,8.6s-4.63,9.09-10.73,9.09c-5.25,0-8.84-1.1-13.23-3.48Z"/>
    <path class="cls-3" d="M996.24,487.42c0-1.95,1.59-3.54,3.6-3.54s3.6,1.59,3.6,3.54c0,2.07-1.59,3.72-3.6,3.72s-3.6-1.65-3.6-3.72ZM997.04,495.96h5.67v29.64h-5.67v-29.64Z"/>
    <path class="cls-3" d="M1016.43,481.81h5.67v43.79h-5.67v-43.79Z"/>
    <path class="cls-3" d="M1033.26,516.33c-.49-3.96-.55-7.14,0-11.1.79-5.98,5.85-9.94,13.05-9.94s12.32,3.96,13.17,9.94c.3,2.62.43,4.94.3,7.2h-21.35c0,1.59.12,2.93.43,3.96.73,3.42,3.84,5.73,7.99,5.73s7.2-1.28,9.58-3.05l1.77,3.9c-3.23,2.07-6.59,3.29-11.59,3.29-7.44,0-12.62-4.03-13.36-9.94ZM1054.3,508.95c0-1.04-.12-1.95-.18-2.93-.49-3.84-3.54-6.59-7.75-6.59s-7.32,2.74-7.81,6.59c-.06.98-.12,2.01-.12,2.93h15.86Z"/>
    <path class="cls-3" d="M1070.16,487.42c0-1.95,1.59-3.54,3.6-3.54s3.6,1.59,3.6,3.54c0,2.07-1.59,3.72-3.6,3.72s-3.6-1.65-3.6-3.72ZM1070.95,495.96h5.67v29.64h-5.67v-29.64Z"/>
    <path class="cls-3" d="M1089.74,495.96h4.94l.73,3.96c3.6-2.81,6.95-4.63,10.12-4.63v4.94c-3.29,0-6.46,1.34-10.12,4.21v21.16h-5.67v-29.64Z"/>
    <path class="cls-3" d="M1110.78,517.18c0-6.04,5-9.09,12.87-9.09h6.83v-2.68c0-3.48-2.07-6.04-6.22-6.04-3.42,0-7.01,1.83-9.27,3.23l-2.07-3.54c2.13-1.28,7.2-3.78,12.32-3.78,6.46,0,10.86,4.09,10.86,10.43v19.88h-4.76l-.73-3.48c-2.26,1.77-6.16,4.15-9.7,4.15-6.04,0-10.12-3.66-10.12-9.09ZM1130.47,518.77v-7.26h-6.4c-4.82,0-7.81,1.77-7.81,5.31s2.13,5.37,5.61,5.37c1.77,0,4.94-1.04,8.6-3.42Z"/>
    <path class="cls-3" d="M1167.92,516.15c-.55-3.6-.49-7.14,0-10.73.73-5.55,5.18-10.12,11.53-10.12,2.62,0,5.73,1.04,8.9,3.17v-16.65h5.67v43.79h-5.25l-.43-2.26c-3.23,2.13-6.71,2.93-9.03,2.93-6.34,0-10.61-4.57-11.41-10.12ZM1188.35,519.13v-16.53c-3.48-2.2-5.85-2.87-7.87-2.87-3.72,0-6.46,2.68-7.01,6.4-.43,2.75-.43,6.59,0,9.21.61,3.84,3.29,6.46,7.01,6.46,2.01,0,4.09-.67,7.87-2.68Z"/>
    <path class="cls-3" d="M1204.57,516.33c-.49-3.96-.55-7.14,0-11.1.79-5.98,5.85-9.94,13.05-9.94s12.32,3.96,13.17,9.94c.3,2.62.43,4.94.3,7.2h-21.35c0,1.59.12,2.93.43,3.96.73,3.42,3.84,5.73,7.99,5.73s7.2-1.28,9.58-3.05l1.77,3.9c-3.23,2.07-6.59,3.29-11.59,3.29-7.44,0-12.62-4.03-13.36-9.94ZM1225.61,508.95c0-1.04-.12-1.95-.18-2.93-.49-3.84-3.54-6.59-7.75-6.59s-7.32,2.74-7.81,6.59c-.06.98-.12,2.01-.12,2.93h15.86Z"/>
    <path class="cls-3" d="M1263.3,484.06h11.34c10.06,0,16.89,6.16,17.93,13.66.67,5,.67,9.58,0,14.58-1.04,7.5-7.62,13.3-17.38,13.3h-11.89v-41.53ZM1274.95,521.15c6.34,0,10.98-3.66,11.89-9.09.67-3.9.67-10,0-14.15-.92-5.37-5.67-9.39-12.38-9.39h-5.49v32.63h5.98Z"/>
    <path class="cls-3" d="M1303.07,487.42c0-1.95,1.59-3.54,3.6-3.54s3.6,1.59,3.6,3.54c0,2.07-1.59,3.72-3.6,3.72s-3.6-1.65-3.6-3.72ZM1303.86,495.96h5.67v29.64h-5.67v-29.64Z"/>
    <path class="cls-3" d="M1318.98,517.18c0-6.04,5-9.09,12.87-9.09h6.83v-2.68c0-3.48-2.07-6.04-6.22-6.04-3.42,0-7.01,1.83-9.27,3.23l-2.07-3.54c2.13-1.28,7.2-3.78,12.32-3.78,6.46,0,10.86,4.09,10.86,10.43v19.88h-4.76l-.73-3.48c-2.26,1.77-6.16,4.15-9.7,4.15-6.04,0-10.12-3.66-10.12-9.09ZM1338.68,518.77v-7.26h-6.4c-4.82,0-7.81,1.77-7.81,5.31s2.13,5.37,5.61,5.37c1.77,0,4.94-1.04,8.6-3.42Z"/>
    <path class="cls-3" d="M1357.65,519.01c-.24-1.52-.3-2.87-.3-4.45v-14.39h-4.57v-4.21h4.82l.67-8.05h4.76v8.05h7.26v4.21h-7.26v14.27c0,1.4,0,2.68.24,3.78.49,2.87,2.26,3.72,4.88,3.72.98,0,1.95-.24,2.93-.55l1.28,4.15c-1.59.49-3.17.73-4.51.73-5.67,0-9.39-2.62-10.18-7.26Z"/>
    <path class="cls-3" d="M1378.87,516.33c-.55-3.96-.55-7.14,0-11.1.85-5.98,6.1-9.94,13.54-9.94s12.69,3.96,13.6,9.94c.49,3.96.49,7.14,0,11.1-.85,5.92-6.16,9.94-13.6,9.94s-12.75-4.03-13.54-9.94ZM1400.4,515.23c.37-2.68.37-6.22,0-8.9-.49-3.84-3.72-6.59-7.99-6.59s-7.5,2.74-7.99,6.59c-.3,2.68-.3,6.22,0,8.9.49,3.84,3.72,6.65,7.99,6.65s7.5-2.8,7.99-6.65Z"/>
    <path class="cls-3" d="M1416.81,495.96h4.39l.73,3.96c3.42-2.74,7.01-4.63,10.43-4.63,3.9,0,6.65,1.89,8.05,4.51,3.17-2.62,6.71-4.51,10.25-4.51,6.22,0,9.88,4.39,9.88,10.79v19.52h-5.67v-19.39c0-3.66-1.34-6.46-5.18-6.46-2.32,0-4.76,1.28-7.87,3.72.24.79.37,1.71.37,2.68v19.46h-5.67v-19.39c0-3.54-1.28-6.46-5.12-6.46-2.62,0-5.43,1.77-8.9,4.7v21.16h-5.67v-29.64Z"/>
    <path class="cls-3" d="M1470.6,516.33c-.55-3.96-.55-7.14,0-11.1.85-5.98,6.1-9.94,13.54-9.94s12.69,3.96,13.6,9.94c.49,3.96.49,7.14,0,11.1-.85,5.92-6.16,9.94-13.6,9.94s-12.75-4.03-13.54-9.94ZM1492.13,515.23c.37-2.68.37-6.22,0-8.9-.49-3.84-3.72-6.59-7.99-6.59s-7.5,2.74-7.99,6.59c-.3,2.68-.3,6.22,0,8.9.49,3.84,3.72,6.65,7.99,6.65s7.5-2.8,7.99-6.65ZM1486.33,483.15h5.18l-5.43,7.99h-3.6l3.84-7.99Z"/>
    <path class="cls-3" d="M1509.14,481.81h5.67v43.79h-5.67v-43.79Z"/>
    <path class="cls-3" d="M1525.97,516.33c-.55-3.96-.55-7.14,0-11.1.85-5.98,6.1-9.94,13.54-9.94s12.69,3.96,13.6,9.94c.49,3.96.49,7.14,0,11.1-.85,5.92-6.16,9.94-13.6,9.94s-12.75-4.03-13.54-9.94ZM1547.5,515.23c.37-2.68.37-6.22,0-8.9-.49-3.84-3.72-6.59-7.99-6.59s-7.5,2.74-7.99,6.59c-.3,2.68-.3,6.22,0,8.9.49,3.84,3.72,6.65,7.99,6.65s7.5-2.8,7.99-6.65Z"/>
    <path class="cls-3" d="M1563.6,538.04l1.65-3.84c4.45,2.01,7.56,2.62,10.18,2.62,3.78,0,6.59-2.93,7.14-6.59.24-1.46.37-2.93.37-4.63v-2.5c-2.99,2.26-6.34,3.17-8.72,3.17-6.77,0-10.98-4.57-11.71-10.12-.55-3.6-.55-7.14,0-10.73.73-5.55,5.49-10.12,12.26-10.12,3.29,0,7.81.43,13.84,2.74v27.57c0,1.83-.18,3.66-.49,5.55-.92,5.43-5.86,10.06-12.56,10.06-3.05,0-7.07-.79-11.95-3.17ZM1582.94,518.89v-17.69c-3.48-1.22-5.61-1.46-7.68-1.46-3.72,0-6.71,2.68-7.26,6.53-.37,2.68-.37,6.28,0,9.03.55,3.84,3.54,6.53,7.14,6.53,2.01,0,4.45-.67,7.81-2.93Z"/>
    <path class="cls-3" d="M1599.1,516.33c-.55-3.96-.55-7.14,0-11.1.85-5.98,6.1-9.94,13.54-9.94s12.69,3.96,13.6,9.94c.49,3.96.49,7.14,0,11.1-.85,5.92-6.16,9.94-13.6,9.94s-12.75-4.03-13.54-9.94ZM1620.63,515.23c.37-2.68.37-6.22,0-8.9-.49-3.84-3.72-6.59-7.99-6.59s-7.5,2.74-7.99,6.59c-.3,2.68-.3,6.22,0,8.9.49,3.84,3.72,6.65,7.99,6.65s7.5-2.8,7.99-6.65Z"/>
    <path class="cls-3" d="M1634.84,522.73l1.58-3.9c4.21,2.32,7.44,3.35,11.34,3.35,2.74,0,5.49-1.83,5.49-5,0-2.62-2.32-3.84-7.01-4.7-5.43-.92-10.43-3.42-10.43-8.91s4.45-8.29,10.55-8.29c5.31,0,9.64,2.74,11.28,3.96l-2.2,3.48c-2.87-2.01-5.86-3.29-8.78-3.29s-5.31,1.71-5.31,4.51c0,2.62,2.2,3.84,5.73,4.57,6.22,1.4,11.71,2.93,11.71,8.6s-4.64,9.09-10.73,9.09c-5.25,0-8.84-1.1-13.23-3.48Z"/>
  </g>
</svg>